G04 #@! TF.FileFunction,Soldermask,Top*
%FSLAX46Y46*%
G04 Gerber Fmt 4.6, Leading zero omitted, Abs format (unit mm)*
G04 Created by KiCad (PCBNEW 4.0.2-stable) date 10/8/2016 11:45:13 AM*
%MOMM*%
G01*
G04 APERTURE LIST*
%ADD10C,0.100000*%
%ADD11R,1.197560X1.197560*%
%ADD12R,2.432000X2.127200*%
%ADD13O,2.432000X2.127200*%
%ADD14R,1.300000X0.900000*%
%ADD15R,2.100000X0.900000*%
%ADD16R,0.900000X2.100000*%
G04 APERTURE END LIST*
D10*
D11*
X33286700Y-41656000D03*
X34785300Y-41656000D03*
D12*
X27000000Y-20000000D03*
D13*
X27000000Y-22540000D03*
X27000000Y-25080000D03*
X27000000Y-27620000D03*
X27000000Y-30160000D03*
X27000000Y-32700000D03*
X27000000Y-35240000D03*
X27000000Y-37780000D03*
X27000000Y-40320000D03*
X27000000Y-42860000D03*
X27000000Y-45400000D03*
X27000000Y-47940000D03*
D12*
X42300000Y-20000000D03*
D13*
X42300000Y-22540000D03*
X42300000Y-25080000D03*
X42300000Y-27620000D03*
X42300000Y-30160000D03*
X42300000Y-32700000D03*
X42300000Y-35240000D03*
X42300000Y-37780000D03*
X42300000Y-40320000D03*
X42300000Y-42860000D03*
X42300000Y-45400000D03*
X42300000Y-47940000D03*
D14*
X34798000Y-38505000D03*
X34798000Y-40005000D03*
D15*
X39624000Y-19862000D03*
X39624000Y-20562000D03*
X39624000Y-21262000D03*
X39624000Y-21962000D03*
X39624000Y-22662000D03*
X39624000Y-23362000D03*
X39624000Y-24062000D03*
X39624000Y-24762000D03*
X39624000Y-25462000D03*
X39624000Y-26162000D03*
X39624000Y-26862000D03*
X39624000Y-27562000D03*
X39624000Y-28262000D03*
X39624000Y-28962000D03*
X39624000Y-29662000D03*
X39624000Y-30362000D03*
X39624000Y-31062000D03*
D16*
X38124000Y-32862000D03*
X37424000Y-32862000D03*
X36724000Y-32862000D03*
X36024000Y-32862000D03*
X35324000Y-32862000D03*
X34624000Y-32862000D03*
X33924000Y-32862000D03*
X38824000Y-32862000D03*
X33224000Y-32862000D03*
X32524000Y-32862000D03*
X31824000Y-32862000D03*
X31124000Y-32862000D03*
X30424000Y-32862000D03*
D15*
X29624000Y-19862000D03*
X29624000Y-20562000D03*
X29624000Y-24762000D03*
X29624000Y-25462000D03*
X29624000Y-26162000D03*
X29624000Y-26862000D03*
X29624000Y-27562000D03*
X29624000Y-28262000D03*
X29624000Y-28962000D03*
X29624000Y-29662000D03*
X29624000Y-30362000D03*
X29624000Y-31062000D03*
M02*
