G04 #@! TF.FileFunction,Copper,L1,Top,Signal*
%FSLAX46Y46*%
G04 Gerber Fmt 4.6, Leading zero omitted, Abs format (unit mm)*
G04 Created by KiCad (PCBNEW 4.0.2-stable) date 10/8/2016 11:45:13 AM*
%MOMM*%
G01*
G04 APERTURE LIST*
%ADD10C,0.100000*%
%ADD11R,0.797560X0.797560*%
%ADD12R,2.032000X1.727200*%
%ADD13O,2.032000X1.727200*%
%ADD14R,0.900000X0.500000*%
%ADD15R,1.700000X0.500000*%
%ADD16R,0.500000X1.700000*%
%ADD17C,0.600000*%
%ADD18C,0.250000*%
%ADD19C,0.254000*%
G04 APERTURE END LIST*
D10*
D11*
X33286700Y-41656000D03*
X34785300Y-41656000D03*
D12*
X27000000Y-20000000D03*
D13*
X27000000Y-22540000D03*
X27000000Y-25080000D03*
X27000000Y-27620000D03*
X27000000Y-30160000D03*
X27000000Y-32700000D03*
X27000000Y-35240000D03*
X27000000Y-37780000D03*
X27000000Y-40320000D03*
X27000000Y-42860000D03*
X27000000Y-45400000D03*
X27000000Y-47940000D03*
D12*
X42300000Y-20000000D03*
D13*
X42300000Y-22540000D03*
X42300000Y-25080000D03*
X42300000Y-27620000D03*
X42300000Y-30160000D03*
X42300000Y-32700000D03*
X42300000Y-35240000D03*
X42300000Y-37780000D03*
X42300000Y-40320000D03*
X42300000Y-42860000D03*
X42300000Y-45400000D03*
X42300000Y-47940000D03*
D14*
X34798000Y-38505000D03*
X34798000Y-40005000D03*
D15*
X39624000Y-19862000D03*
X39624000Y-20562000D03*
X39624000Y-21262000D03*
X39624000Y-21962000D03*
X39624000Y-22662000D03*
X39624000Y-23362000D03*
X39624000Y-24062000D03*
X39624000Y-24762000D03*
X39624000Y-25462000D03*
X39624000Y-26162000D03*
X39624000Y-26862000D03*
X39624000Y-27562000D03*
X39624000Y-28262000D03*
X39624000Y-28962000D03*
X39624000Y-29662000D03*
X39624000Y-30362000D03*
X39624000Y-31062000D03*
D16*
X38124000Y-32862000D03*
X37424000Y-32862000D03*
X36724000Y-32862000D03*
X36024000Y-32862000D03*
X35324000Y-32862000D03*
X34624000Y-32862000D03*
X33924000Y-32862000D03*
X38824000Y-32862000D03*
X33224000Y-32862000D03*
X32524000Y-32862000D03*
X31824000Y-32862000D03*
X31124000Y-32862000D03*
X30424000Y-32862000D03*
D15*
X29624000Y-19862000D03*
X29624000Y-20562000D03*
X29624000Y-24762000D03*
X29624000Y-25462000D03*
X29624000Y-26162000D03*
X29624000Y-26862000D03*
X29624000Y-27562000D03*
X29624000Y-28262000D03*
X29624000Y-28962000D03*
X29624000Y-29662000D03*
X29624000Y-30362000D03*
X29624000Y-31062000D03*
D17*
X39808011Y-33274000D03*
X29591000Y-32639000D03*
X29718000Y-36957000D03*
X37084000Y-23241000D03*
X34036000Y-21844000D03*
X32385000Y-20955000D03*
X36066000Y-29718000D03*
X36066000Y-27178000D03*
X32258000Y-48639000D03*
X37970000Y-48387000D03*
X34417000Y-45593000D03*
X29083000Y-35560000D03*
X34417000Y-25731000D03*
X32258000Y-41276080D03*
X38100000Y-20701000D03*
X32258000Y-29591000D03*
X31496000Y-29210000D03*
X31106204Y-35788039D03*
X37846000Y-24003000D03*
X35052000Y-37338000D03*
D18*
X39324000Y-32862000D02*
X39808011Y-33274000D01*
X39736000Y-33274000D02*
X39808011Y-33274000D01*
X38824000Y-32862000D02*
X39324000Y-32862000D01*
X29814000Y-32862000D02*
X29591000Y-32639000D01*
X30424000Y-32862000D02*
X29814000Y-32862000D01*
X42300000Y-20000000D02*
X41034000Y-20000000D01*
X41034000Y-20000000D02*
X40896000Y-19862000D01*
X40896000Y-19862000D02*
X40724000Y-19862000D01*
X40724000Y-19862000D02*
X39624000Y-19862000D01*
X29624000Y-20562000D02*
X27562000Y-20562000D01*
X27562000Y-20562000D02*
X27000000Y-20000000D01*
X31124000Y-32862000D02*
X31124000Y-33962000D01*
X31124000Y-33962000D02*
X29526000Y-35560000D01*
X29526000Y-35560000D02*
X29507264Y-35560000D01*
X29507264Y-35560000D02*
X29083000Y-35560000D01*
X33286700Y-41656000D02*
X32637920Y-41656000D01*
X32637920Y-41656000D02*
X32258000Y-41276080D01*
X29624000Y-24762000D02*
X29024000Y-24762000D01*
X29024000Y-24762000D02*
X27000000Y-22738000D01*
X27000000Y-22738000D02*
X27000000Y-22540000D01*
X38100000Y-20701000D02*
X38239000Y-20562000D01*
X38239000Y-20562000D02*
X39624000Y-20562000D01*
X32004000Y-29845000D02*
X32258000Y-29591000D01*
X30907000Y-29845000D02*
X32004000Y-29845000D01*
X29624000Y-29662000D02*
X30724000Y-29662000D01*
X30724000Y-29662000D02*
X30907000Y-29845000D01*
X31248000Y-28962000D02*
X31496000Y-29210000D01*
X29624000Y-28962000D02*
X31248000Y-28962000D01*
X34798000Y-40005000D02*
X34798000Y-41643300D01*
X34798000Y-41643300D02*
X34785300Y-41656000D01*
X31824000Y-35105000D02*
X31140961Y-35788039D01*
X31140961Y-35788039D02*
X31106204Y-35788039D01*
X31824000Y-32862000D02*
X31824000Y-35105000D01*
X39624000Y-24062000D02*
X40778000Y-24062000D01*
X41034000Y-23806000D02*
X41034000Y-23653600D01*
X40778000Y-24062000D02*
X41034000Y-23806000D01*
X41034000Y-23653600D02*
X42147600Y-22540000D01*
X42147600Y-22540000D02*
X42300000Y-22540000D01*
X39624000Y-24762000D02*
X41982000Y-24762000D01*
X41982000Y-24762000D02*
X42300000Y-25080000D01*
X39624000Y-21962000D02*
X38524000Y-21962000D01*
X38524000Y-21962000D02*
X37846000Y-22640000D01*
X37846000Y-22640000D02*
X37846000Y-23578736D01*
X37846000Y-23578736D02*
X37846000Y-24003000D01*
X35052000Y-37751000D02*
X35052000Y-37338000D01*
X34798000Y-38005000D02*
X35052000Y-37751000D01*
X34798000Y-38505000D02*
X34798000Y-38005000D01*
X40920500Y-28765500D02*
X41002100Y-28765500D01*
X41002100Y-28765500D02*
X42147600Y-27620000D01*
X42147600Y-27620000D02*
X42300000Y-27620000D01*
X39624000Y-28962000D02*
X40724000Y-28962000D01*
X40724000Y-28962000D02*
X40920500Y-28765500D01*
X39624000Y-29662000D02*
X41802000Y-29662000D01*
X41802000Y-29662000D02*
X42300000Y-30160000D01*
X41021000Y-30773998D02*
X41021000Y-31573400D01*
X41021000Y-31573400D02*
X42147600Y-32700000D01*
X42147600Y-32700000D02*
X42300000Y-32700000D01*
X39624000Y-30362000D02*
X40609002Y-30362000D01*
X40609002Y-30362000D02*
X41021000Y-30773998D01*
X42300000Y-35240000D02*
X41034000Y-35240000D01*
X41034000Y-35240000D02*
X40433012Y-34639012D01*
X40433012Y-34639012D02*
X40433012Y-32371012D01*
X40433012Y-32371012D02*
X39624000Y-31562000D01*
X39624000Y-31562000D02*
X39624000Y-31062000D01*
X38124000Y-36727000D02*
X39177000Y-37780000D01*
X39177000Y-37780000D02*
X42300000Y-37780000D01*
X38124000Y-32862000D02*
X38124000Y-36727000D01*
X37424000Y-38440000D02*
X39304000Y-40320000D01*
X39304000Y-40320000D02*
X42300000Y-40320000D01*
X37424000Y-32862000D02*
X37424000Y-38440000D01*
X36724000Y-40915000D02*
X38669000Y-42860000D01*
X38669000Y-42860000D02*
X42300000Y-42860000D01*
X36724000Y-32862000D02*
X36724000Y-40915000D01*
X36024000Y-41993000D02*
X39431000Y-45400000D01*
X39431000Y-45400000D02*
X42300000Y-45400000D01*
X36024000Y-32862000D02*
X36024000Y-41993000D01*
X30480000Y-43688000D02*
X28768000Y-45400000D01*
X28768000Y-45400000D02*
X27000000Y-45400000D01*
X30480000Y-39116000D02*
X30480000Y-43688000D01*
X31750000Y-37846000D02*
X30480000Y-39116000D01*
X33020000Y-37846000D02*
X31750000Y-37846000D01*
X34624000Y-36242000D02*
X33020000Y-37846000D01*
X34624000Y-32862000D02*
X34624000Y-36242000D01*
X33924000Y-32862000D02*
X33924000Y-36305590D01*
X31563600Y-37395990D02*
X29972000Y-38987590D01*
X33924000Y-36305590D02*
X32833600Y-37395990D01*
X32833600Y-37395990D02*
X31563600Y-37395990D01*
X29972000Y-38987590D02*
X29972000Y-41910000D01*
X29972000Y-41910000D02*
X29022000Y-42860000D01*
X29022000Y-42860000D02*
X27000000Y-42860000D01*
X29464000Y-39624000D02*
X28768000Y-40320000D01*
X28768000Y-40320000D02*
X27000000Y-40320000D01*
X29464000Y-38859180D02*
X29464000Y-39624000D01*
X32639000Y-36830000D02*
X31493180Y-36830000D01*
X31493180Y-36830000D02*
X29464000Y-38859180D01*
X33401000Y-36068000D02*
X32639000Y-36830000D01*
X33401000Y-34139000D02*
X33401000Y-36068000D01*
X33224000Y-32862000D02*
X33224000Y-33962000D01*
X33224000Y-33962000D02*
X33401000Y-34139000D01*
X31306779Y-36379991D02*
X29906770Y-37780000D01*
X29906770Y-37780000D02*
X27000000Y-37780000D01*
X32524000Y-35986990D02*
X32131000Y-36379990D01*
X32131000Y-36379990D02*
X31306779Y-36379991D01*
X32524000Y-32862000D02*
X32524000Y-35986990D01*
X29624000Y-25462000D02*
X27382000Y-25462000D01*
X27382000Y-25462000D02*
X27000000Y-25080000D01*
X29624000Y-26162000D02*
X28458000Y-26162000D01*
X27152400Y-27620000D02*
X27000000Y-27620000D01*
X28458000Y-26162000D02*
X28266000Y-26354000D01*
X28266000Y-26354000D02*
X28266000Y-26506400D01*
X28266000Y-26506400D02*
X27152400Y-27620000D01*
X27000000Y-30160000D02*
X27152400Y-30160000D01*
X27152400Y-30160000D02*
X28266000Y-29046400D01*
X28266000Y-29046400D02*
X28266000Y-28520000D01*
X28266000Y-28520000D02*
X28524000Y-28262000D01*
X28524000Y-28262000D02*
X29624000Y-28262000D01*
X28448000Y-30552998D02*
X28448000Y-31404400D01*
X28448000Y-31404400D02*
X27152400Y-32700000D01*
X27152400Y-32700000D02*
X27000000Y-32700000D01*
X29624000Y-30362000D02*
X28638998Y-30362000D01*
X28638998Y-30362000D02*
X28448000Y-30552998D01*
X29624000Y-31062000D02*
X29624000Y-31562000D01*
X28956000Y-34550000D02*
X28266000Y-35240000D01*
X29624000Y-31562000D02*
X28956000Y-32230000D01*
X28956000Y-32230000D02*
X28956000Y-34550000D01*
X28266000Y-35240000D02*
X27000000Y-35240000D01*
D19*
G36*
X33700560Y-38255000D02*
X33700560Y-38755000D01*
X33744838Y-38990317D01*
X33883910Y-39206441D01*
X33953711Y-39254134D01*
X33896559Y-39290910D01*
X33751569Y-39503110D01*
X33700560Y-39755000D01*
X33700560Y-40255000D01*
X33744838Y-40490317D01*
X33842122Y-40641501D01*
X33685480Y-40609780D01*
X32913999Y-40609780D01*
X32788327Y-40483888D01*
X32444799Y-40341242D01*
X32072833Y-40340918D01*
X31729057Y-40482963D01*
X31465808Y-40745753D01*
X31323162Y-41089281D01*
X31322838Y-41461247D01*
X31464883Y-41805023D01*
X31727673Y-42068272D01*
X32071201Y-42210918D01*
X32126808Y-42210966D01*
X32314569Y-42336424D01*
X32423830Y-42506221D01*
X32636030Y-42651211D01*
X32887920Y-42702220D01*
X33685480Y-42702220D01*
X33920797Y-42657942D01*
X34035993Y-42583815D01*
X34134630Y-42651211D01*
X34386520Y-42702220D01*
X35184080Y-42702220D01*
X35419397Y-42657942D01*
X35537891Y-42581693D01*
X38893599Y-45937401D01*
X39140161Y-46102148D01*
X39431000Y-46160000D01*
X40855352Y-46160000D01*
X41055585Y-46459670D01*
X41370366Y-46670000D01*
X41055585Y-46880330D01*
X40730729Y-47366511D01*
X40616655Y-47940000D01*
X40730729Y-48513489D01*
X41055585Y-48999670D01*
X41166828Y-49074000D01*
X34802741Y-49074000D01*
X28253100Y-48986671D01*
X28569271Y-48513489D01*
X28683345Y-47940000D01*
X28569271Y-47366511D01*
X28244415Y-46880330D01*
X27929634Y-46670000D01*
X28244415Y-46459670D01*
X28444648Y-46160000D01*
X28768000Y-46160000D01*
X29058839Y-46102148D01*
X29305401Y-45937401D01*
X31017401Y-44225401D01*
X31182148Y-43978839D01*
X31240000Y-43688000D01*
X31240000Y-39430802D01*
X32064802Y-38606000D01*
X33020000Y-38606000D01*
X33310839Y-38548148D01*
X33557401Y-38383401D01*
X33704307Y-38236495D01*
X33700560Y-38255000D01*
X33700560Y-38255000D01*
G37*
X33700560Y-38255000D02*
X33700560Y-38755000D01*
X33744838Y-38990317D01*
X33883910Y-39206441D01*
X33953711Y-39254134D01*
X33896559Y-39290910D01*
X33751569Y-39503110D01*
X33700560Y-39755000D01*
X33700560Y-40255000D01*
X33744838Y-40490317D01*
X33842122Y-40641501D01*
X33685480Y-40609780D01*
X32913999Y-40609780D01*
X32788327Y-40483888D01*
X32444799Y-40341242D01*
X32072833Y-40340918D01*
X31729057Y-40482963D01*
X31465808Y-40745753D01*
X31323162Y-41089281D01*
X31322838Y-41461247D01*
X31464883Y-41805023D01*
X31727673Y-42068272D01*
X32071201Y-42210918D01*
X32126808Y-42210966D01*
X32314569Y-42336424D01*
X32423830Y-42506221D01*
X32636030Y-42651211D01*
X32887920Y-42702220D01*
X33685480Y-42702220D01*
X33920797Y-42657942D01*
X34035993Y-42583815D01*
X34134630Y-42651211D01*
X34386520Y-42702220D01*
X35184080Y-42702220D01*
X35419397Y-42657942D01*
X35537891Y-42581693D01*
X38893599Y-45937401D01*
X39140161Y-46102148D01*
X39431000Y-46160000D01*
X40855352Y-46160000D01*
X41055585Y-46459670D01*
X41370366Y-46670000D01*
X41055585Y-46880330D01*
X40730729Y-47366511D01*
X40616655Y-47940000D01*
X40730729Y-48513489D01*
X41055585Y-48999670D01*
X41166828Y-49074000D01*
X34802741Y-49074000D01*
X28253100Y-48986671D01*
X28569271Y-48513489D01*
X28683345Y-47940000D01*
X28569271Y-47366511D01*
X28244415Y-46880330D01*
X27929634Y-46670000D01*
X28244415Y-46459670D01*
X28444648Y-46160000D01*
X28768000Y-46160000D01*
X29058839Y-46102148D01*
X29305401Y-45937401D01*
X31017401Y-44225401D01*
X31182148Y-43978839D01*
X31240000Y-43688000D01*
X31240000Y-39430802D01*
X32064802Y-38606000D01*
X33020000Y-38606000D01*
X33310839Y-38548148D01*
X33557401Y-38383401D01*
X33704307Y-38236495D01*
X33700560Y-38255000D01*
G36*
X40924302Y-18598073D02*
X40745673Y-18776701D01*
X40653568Y-18999061D01*
X40600309Y-18977000D01*
X39909750Y-18977000D01*
X39751000Y-19135750D01*
X39751000Y-19664560D01*
X39497000Y-19664560D01*
X39497000Y-19135750D01*
X39338250Y-18977000D01*
X38647691Y-18977000D01*
X38414302Y-19073673D01*
X38235673Y-19252301D01*
X38139000Y-19485690D01*
X38139000Y-19578250D01*
X38295748Y-19734998D01*
X38139000Y-19734998D01*
X38139000Y-19766033D01*
X37914833Y-19765838D01*
X37571057Y-19907883D01*
X37307808Y-20170673D01*
X37165162Y-20514201D01*
X37164838Y-20886167D01*
X37306883Y-21229943D01*
X37569673Y-21493192D01*
X37815803Y-21595395D01*
X37308599Y-22102599D01*
X37143852Y-22349161D01*
X37086000Y-22640000D01*
X37086000Y-23440537D01*
X37053808Y-23472673D01*
X36911162Y-23816201D01*
X36910838Y-24188167D01*
X37052883Y-24531943D01*
X37315673Y-24795192D01*
X37659201Y-24937838D01*
X38031167Y-24938162D01*
X38126560Y-24898747D01*
X38126560Y-25012000D01*
X38146067Y-25115671D01*
X38126560Y-25212000D01*
X38126560Y-25712000D01*
X38146067Y-25815671D01*
X38126560Y-25912000D01*
X38126560Y-26412000D01*
X38146067Y-26515671D01*
X38126560Y-26612000D01*
X38126560Y-27112000D01*
X38146067Y-27215671D01*
X38126560Y-27312000D01*
X38126560Y-27812000D01*
X38146067Y-27915671D01*
X38126560Y-28012000D01*
X38126560Y-28512000D01*
X38146067Y-28615671D01*
X38126560Y-28712000D01*
X38126560Y-29212000D01*
X38146067Y-29315671D01*
X38126560Y-29412000D01*
X38126560Y-29912000D01*
X38146067Y-30015671D01*
X38126560Y-30112000D01*
X38126560Y-30612000D01*
X38146067Y-30715671D01*
X38126560Y-30812000D01*
X38126560Y-31312000D01*
X38136450Y-31364560D01*
X37874000Y-31364560D01*
X37770329Y-31384067D01*
X37674000Y-31364560D01*
X37174000Y-31364560D01*
X37070329Y-31384067D01*
X36974000Y-31364560D01*
X36474000Y-31364560D01*
X36370329Y-31384067D01*
X36274000Y-31364560D01*
X35774000Y-31364560D01*
X35670329Y-31384067D01*
X35574000Y-31364560D01*
X35074000Y-31364560D01*
X34970329Y-31384067D01*
X34874000Y-31364560D01*
X34374000Y-31364560D01*
X34270329Y-31384067D01*
X34174000Y-31364560D01*
X33674000Y-31364560D01*
X33570329Y-31384067D01*
X33474000Y-31364560D01*
X32974000Y-31364560D01*
X32870329Y-31384067D01*
X32774000Y-31364560D01*
X32274000Y-31364560D01*
X32170329Y-31384067D01*
X32074000Y-31364560D01*
X31574000Y-31364560D01*
X31470329Y-31384067D01*
X31374000Y-31364560D01*
X31110796Y-31364560D01*
X31121440Y-31312000D01*
X31121440Y-30812000D01*
X31101933Y-30708329D01*
X31121440Y-30612000D01*
X31121440Y-30605000D01*
X32004000Y-30605000D01*
X32294839Y-30547148D01*
X32326399Y-30526060D01*
X32443167Y-30526162D01*
X32786943Y-30384117D01*
X33050192Y-30121327D01*
X33192838Y-29777799D01*
X33193162Y-29405833D01*
X33051117Y-29062057D01*
X32788327Y-28798808D01*
X32444799Y-28656162D01*
X32264108Y-28656005D01*
X32026327Y-28417808D01*
X31682799Y-28275162D01*
X31561594Y-28275056D01*
X31538839Y-28259852D01*
X31248000Y-28202000D01*
X31121440Y-28202000D01*
X31121440Y-28012000D01*
X31101933Y-27908329D01*
X31121440Y-27812000D01*
X31121440Y-27312000D01*
X31101933Y-27208329D01*
X31121440Y-27112000D01*
X31121440Y-26612000D01*
X31101933Y-26508329D01*
X31121440Y-26412000D01*
X31121440Y-25916167D01*
X33481838Y-25916167D01*
X33623883Y-26259943D01*
X33886673Y-26523192D01*
X34230201Y-26665838D01*
X34602167Y-26666162D01*
X34945943Y-26524117D01*
X35209192Y-26261327D01*
X35351838Y-25917799D01*
X35352162Y-25545833D01*
X35210117Y-25202057D01*
X34947327Y-24938808D01*
X34603799Y-24796162D01*
X34231833Y-24795838D01*
X33888057Y-24937883D01*
X33624808Y-25200673D01*
X33482162Y-25544201D01*
X33481838Y-25916167D01*
X31121440Y-25916167D01*
X31121440Y-25912000D01*
X31101933Y-25808329D01*
X31121440Y-25712000D01*
X31121440Y-25212000D01*
X31101933Y-25108329D01*
X31121440Y-25012000D01*
X31121440Y-24512000D01*
X31077162Y-24276683D01*
X30938090Y-24060559D01*
X30725890Y-23915569D01*
X30474000Y-23864560D01*
X29201362Y-23864560D01*
X28521614Y-23184812D01*
X28569271Y-23113489D01*
X28683345Y-22540000D01*
X28569271Y-21966511D01*
X28244415Y-21480330D01*
X28222220Y-21465500D01*
X28375698Y-21401927D01*
X28423492Y-21354134D01*
X28647691Y-21447000D01*
X29338250Y-21447000D01*
X29497000Y-21288250D01*
X29497000Y-20687000D01*
X29477000Y-20687000D01*
X29477000Y-20608250D01*
X29497000Y-20588250D01*
X29497000Y-19835750D01*
X29477000Y-19815750D01*
X29477000Y-19737000D01*
X29497000Y-19737000D01*
X29497000Y-19135750D01*
X29751000Y-19135750D01*
X29751000Y-19737000D01*
X29849750Y-19737000D01*
X29751000Y-19835750D01*
X29751000Y-20588250D01*
X29849750Y-20687000D01*
X29751000Y-20687000D01*
X29751000Y-21288250D01*
X29909750Y-21447000D01*
X30600309Y-21447000D01*
X30833698Y-21350327D01*
X31012327Y-21171699D01*
X31109000Y-20938310D01*
X31109000Y-20845750D01*
X30950250Y-20687000D01*
X30745162Y-20687000D01*
X30833698Y-20650327D01*
X31012327Y-20471699D01*
X31080758Y-20306492D01*
X31109000Y-20278250D01*
X31109000Y-20145750D01*
X31080758Y-20117508D01*
X31012327Y-19952301D01*
X30833698Y-19773673D01*
X30745162Y-19737000D01*
X30950250Y-19737000D01*
X31109000Y-19578250D01*
X31109000Y-19485690D01*
X31012327Y-19252301D01*
X30833698Y-19073673D01*
X30600309Y-18977000D01*
X29909750Y-18977000D01*
X29751000Y-19135750D01*
X29497000Y-19135750D01*
X29338250Y-18977000D01*
X28647691Y-18977000D01*
X28638816Y-18980676D01*
X28554327Y-18776701D01*
X28375698Y-18598073D01*
X28240326Y-18542000D01*
X41059674Y-18542000D01*
X40924302Y-18598073D01*
X40924302Y-18598073D01*
G37*
X40924302Y-18598073D02*
X40745673Y-18776701D01*
X40653568Y-18999061D01*
X40600309Y-18977000D01*
X39909750Y-18977000D01*
X39751000Y-19135750D01*
X39751000Y-19664560D01*
X39497000Y-19664560D01*
X39497000Y-19135750D01*
X39338250Y-18977000D01*
X38647691Y-18977000D01*
X38414302Y-19073673D01*
X38235673Y-19252301D01*
X38139000Y-19485690D01*
X38139000Y-19578250D01*
X38295748Y-19734998D01*
X38139000Y-19734998D01*
X38139000Y-19766033D01*
X37914833Y-19765838D01*
X37571057Y-19907883D01*
X37307808Y-20170673D01*
X37165162Y-20514201D01*
X37164838Y-20886167D01*
X37306883Y-21229943D01*
X37569673Y-21493192D01*
X37815803Y-21595395D01*
X37308599Y-22102599D01*
X37143852Y-22349161D01*
X37086000Y-22640000D01*
X37086000Y-23440537D01*
X37053808Y-23472673D01*
X36911162Y-23816201D01*
X36910838Y-24188167D01*
X37052883Y-24531943D01*
X37315673Y-24795192D01*
X37659201Y-24937838D01*
X38031167Y-24938162D01*
X38126560Y-24898747D01*
X38126560Y-25012000D01*
X38146067Y-25115671D01*
X38126560Y-25212000D01*
X38126560Y-25712000D01*
X38146067Y-25815671D01*
X38126560Y-25912000D01*
X38126560Y-26412000D01*
X38146067Y-26515671D01*
X38126560Y-26612000D01*
X38126560Y-27112000D01*
X38146067Y-27215671D01*
X38126560Y-27312000D01*
X38126560Y-27812000D01*
X38146067Y-27915671D01*
X38126560Y-28012000D01*
X38126560Y-28512000D01*
X38146067Y-28615671D01*
X38126560Y-28712000D01*
X38126560Y-29212000D01*
X38146067Y-29315671D01*
X38126560Y-29412000D01*
X38126560Y-29912000D01*
X38146067Y-30015671D01*
X38126560Y-30112000D01*
X38126560Y-30612000D01*
X38146067Y-30715671D01*
X38126560Y-30812000D01*
X38126560Y-31312000D01*
X38136450Y-31364560D01*
X37874000Y-31364560D01*
X37770329Y-31384067D01*
X37674000Y-31364560D01*
X37174000Y-31364560D01*
X37070329Y-31384067D01*
X36974000Y-31364560D01*
X36474000Y-31364560D01*
X36370329Y-31384067D01*
X36274000Y-31364560D01*
X35774000Y-31364560D01*
X35670329Y-31384067D01*
X35574000Y-31364560D01*
X35074000Y-31364560D01*
X34970329Y-31384067D01*
X34874000Y-31364560D01*
X34374000Y-31364560D01*
X34270329Y-31384067D01*
X34174000Y-31364560D01*
X33674000Y-31364560D01*
X33570329Y-31384067D01*
X33474000Y-31364560D01*
X32974000Y-31364560D01*
X32870329Y-31384067D01*
X32774000Y-31364560D01*
X32274000Y-31364560D01*
X32170329Y-31384067D01*
X32074000Y-31364560D01*
X31574000Y-31364560D01*
X31470329Y-31384067D01*
X31374000Y-31364560D01*
X31110796Y-31364560D01*
X31121440Y-31312000D01*
X31121440Y-30812000D01*
X31101933Y-30708329D01*
X31121440Y-30612000D01*
X31121440Y-30605000D01*
X32004000Y-30605000D01*
X32294839Y-30547148D01*
X32326399Y-30526060D01*
X32443167Y-30526162D01*
X32786943Y-30384117D01*
X33050192Y-30121327D01*
X33192838Y-29777799D01*
X33193162Y-29405833D01*
X33051117Y-29062057D01*
X32788327Y-28798808D01*
X32444799Y-28656162D01*
X32264108Y-28656005D01*
X32026327Y-28417808D01*
X31682799Y-28275162D01*
X31561594Y-28275056D01*
X31538839Y-28259852D01*
X31248000Y-28202000D01*
X31121440Y-28202000D01*
X31121440Y-28012000D01*
X31101933Y-27908329D01*
X31121440Y-27812000D01*
X31121440Y-27312000D01*
X31101933Y-27208329D01*
X31121440Y-27112000D01*
X31121440Y-26612000D01*
X31101933Y-26508329D01*
X31121440Y-26412000D01*
X31121440Y-25916167D01*
X33481838Y-25916167D01*
X33623883Y-26259943D01*
X33886673Y-26523192D01*
X34230201Y-26665838D01*
X34602167Y-26666162D01*
X34945943Y-26524117D01*
X35209192Y-26261327D01*
X35351838Y-25917799D01*
X35352162Y-25545833D01*
X35210117Y-25202057D01*
X34947327Y-24938808D01*
X34603799Y-24796162D01*
X34231833Y-24795838D01*
X33888057Y-24937883D01*
X33624808Y-25200673D01*
X33482162Y-25544201D01*
X33481838Y-25916167D01*
X31121440Y-25916167D01*
X31121440Y-25912000D01*
X31101933Y-25808329D01*
X31121440Y-25712000D01*
X31121440Y-25212000D01*
X31101933Y-25108329D01*
X31121440Y-25012000D01*
X31121440Y-24512000D01*
X31077162Y-24276683D01*
X30938090Y-24060559D01*
X30725890Y-23915569D01*
X30474000Y-23864560D01*
X29201362Y-23864560D01*
X28521614Y-23184812D01*
X28569271Y-23113489D01*
X28683345Y-22540000D01*
X28569271Y-21966511D01*
X28244415Y-21480330D01*
X28222220Y-21465500D01*
X28375698Y-21401927D01*
X28423492Y-21354134D01*
X28647691Y-21447000D01*
X29338250Y-21447000D01*
X29497000Y-21288250D01*
X29497000Y-20687000D01*
X29477000Y-20687000D01*
X29477000Y-20608250D01*
X29497000Y-20588250D01*
X29497000Y-19835750D01*
X29477000Y-19815750D01*
X29477000Y-19737000D01*
X29497000Y-19737000D01*
X29497000Y-19135750D01*
X29751000Y-19135750D01*
X29751000Y-19737000D01*
X29849750Y-19737000D01*
X29751000Y-19835750D01*
X29751000Y-20588250D01*
X29849750Y-20687000D01*
X29751000Y-20687000D01*
X29751000Y-21288250D01*
X29909750Y-21447000D01*
X30600309Y-21447000D01*
X30833698Y-21350327D01*
X31012327Y-21171699D01*
X31109000Y-20938310D01*
X31109000Y-20845750D01*
X30950250Y-20687000D01*
X30745162Y-20687000D01*
X30833698Y-20650327D01*
X31012327Y-20471699D01*
X31080758Y-20306492D01*
X31109000Y-20278250D01*
X31109000Y-20145750D01*
X31080758Y-20117508D01*
X31012327Y-19952301D01*
X30833698Y-19773673D01*
X30745162Y-19737000D01*
X30950250Y-19737000D01*
X31109000Y-19578250D01*
X31109000Y-19485690D01*
X31012327Y-19252301D01*
X30833698Y-19073673D01*
X30600309Y-18977000D01*
X29909750Y-18977000D01*
X29751000Y-19135750D01*
X29497000Y-19135750D01*
X29338250Y-18977000D01*
X28647691Y-18977000D01*
X28638816Y-18980676D01*
X28554327Y-18776701D01*
X28375698Y-18598073D01*
X28240326Y-18542000D01*
X41059674Y-18542000D01*
X40924302Y-18598073D01*
G36*
X42427000Y-19873000D02*
X42447000Y-19873000D01*
X42447000Y-20127000D01*
X42427000Y-20127000D01*
X42427000Y-20147000D01*
X42173000Y-20147000D01*
X42173000Y-20127000D01*
X42153000Y-20127000D01*
X42153000Y-19873000D01*
X42173000Y-19873000D01*
X42173000Y-19853000D01*
X42427000Y-19853000D01*
X42427000Y-19873000D01*
X42427000Y-19873000D01*
G37*
X42427000Y-19873000D02*
X42447000Y-19873000D01*
X42447000Y-20127000D01*
X42427000Y-20127000D01*
X42427000Y-20147000D01*
X42173000Y-20147000D01*
X42173000Y-20127000D01*
X42153000Y-20127000D01*
X42153000Y-19873000D01*
X42173000Y-19873000D01*
X42173000Y-19853000D01*
X42427000Y-19853000D01*
X42427000Y-19873000D01*
G36*
X27127000Y-19873000D02*
X27147000Y-19873000D01*
X27147000Y-20127000D01*
X27127000Y-20127000D01*
X27127000Y-20147000D01*
X26873000Y-20147000D01*
X26873000Y-20127000D01*
X26853000Y-20127000D01*
X26853000Y-19873000D01*
X26873000Y-19873000D01*
X26873000Y-19853000D01*
X27127000Y-19853000D01*
X27127000Y-19873000D01*
X27127000Y-19873000D01*
G37*
X27127000Y-19873000D02*
X27147000Y-19873000D01*
X27147000Y-20127000D01*
X27127000Y-20127000D01*
X27127000Y-20147000D01*
X26873000Y-20147000D01*
X26873000Y-20127000D01*
X26853000Y-20127000D01*
X26853000Y-19873000D01*
X26873000Y-19873000D01*
X26873000Y-19853000D01*
X27127000Y-19853000D01*
X27127000Y-19873000D01*
M02*
