G04 #@! TF.FileFunction,Legend,Bot*
%FSLAX46Y46*%
G04 Gerber Fmt 4.6, Leading zero omitted, Abs format (unit mm)*
G04 Created by KiCad (PCBNEW 4.0.2-stable) date 10/8/2016 11:45:13 AM*
%MOMM*%
G01*
G04 APERTURE LIST*
%ADD10C,0.100000*%
%ADD11C,0.150000*%
G04 APERTURE END LIST*
D10*
D11*
X30642000Y-47148000D02*
X30642000Y-47848000D01*
X31842000Y-47848000D02*
X31842000Y-47148000D01*
X37119000Y-46386000D02*
X37119000Y-47086000D01*
X38319000Y-47086000D02*
X38319000Y-46386000D01*
X33178000Y-23587000D02*
X33878000Y-23587000D01*
X33878000Y-22387000D02*
X33178000Y-22387000D01*
X29499000Y-35210000D02*
X29499000Y-35910000D01*
X30699000Y-35910000D02*
X30699000Y-35210000D01*
X37684000Y-21940000D02*
X37684000Y-21240000D01*
X36484000Y-21240000D02*
X36484000Y-21940000D01*
X29937000Y-22575000D02*
X29937000Y-21875000D01*
X28737000Y-21875000D02*
X28737000Y-22575000D01*
X31715000Y-22575000D02*
X31715000Y-21875000D01*
X30515000Y-21875000D02*
X30515000Y-22575000D01*
X35402000Y-30007000D02*
X34702000Y-30007000D01*
X34702000Y-31207000D02*
X35402000Y-31207000D01*
X35402000Y-27467000D02*
X34702000Y-27467000D01*
X34702000Y-28667000D02*
X35402000Y-28667000D01*
X32477000Y-35910000D02*
X32477000Y-35210000D01*
X31277000Y-35210000D02*
X31277000Y-35910000D01*
X34894000Y-34198000D02*
X34194000Y-34198000D01*
X34194000Y-35398000D02*
X34894000Y-35398000D01*
X25730000Y-21270000D02*
X25730000Y-49210000D01*
X25730000Y-49210000D02*
X28270000Y-49210000D01*
X28270000Y-49210000D02*
X28270000Y-21270000D01*
X25450000Y-18450000D02*
X25450000Y-20000000D01*
X25730000Y-21270000D02*
X28270000Y-21270000D01*
X28550000Y-20000000D02*
X28550000Y-18450000D01*
X28550000Y-18450000D02*
X25450000Y-18450000D01*
X41030000Y-21270000D02*
X41030000Y-49210000D01*
X41030000Y-49210000D02*
X43570000Y-49210000D01*
X43570000Y-49210000D02*
X43570000Y-21270000D01*
X40750000Y-18450000D02*
X40750000Y-20000000D01*
X41030000Y-21270000D02*
X43570000Y-21270000D01*
X43850000Y-20000000D02*
X43850000Y-18450000D01*
X43850000Y-18450000D02*
X40750000Y-18450000D01*
X32901000Y-25440000D02*
X33901000Y-25440000D01*
X33901000Y-24090000D02*
X32901000Y-24090000D01*
X39858000Y-21677000D02*
X38858000Y-21677000D01*
X38858000Y-23027000D02*
X39858000Y-23027000D01*
X34344000Y-47166000D02*
G75*
G03X34344000Y-47166000I-100000J0D01*
G01*
X34794000Y-46916000D02*
X34294000Y-46916000D01*
X34794000Y-44016000D02*
X34794000Y-46916000D01*
X34294000Y-44016000D02*
X34794000Y-44016000D01*
X34294000Y-46916000D02*
X34294000Y-44016000D01*
X33274000Y-31369000D02*
X33274000Y-27305000D01*
X33274000Y-27305000D02*
X30988000Y-27305000D01*
X30988000Y-27305000D02*
X30988000Y-31496000D01*
X30988000Y-31496000D02*
X33274000Y-31496000D01*
X33274000Y-31496000D02*
X33274000Y-31369000D01*
X31599143Y-44791334D02*
X31646762Y-44743715D01*
X31694381Y-44600858D01*
X31694381Y-44505620D01*
X31646762Y-44362762D01*
X31551524Y-44267524D01*
X31456286Y-44219905D01*
X31265810Y-44172286D01*
X31122952Y-44172286D01*
X30932476Y-44219905D01*
X30837238Y-44267524D01*
X30742000Y-44362762D01*
X30694381Y-44505620D01*
X30694381Y-44600858D01*
X30742000Y-44743715D01*
X30789619Y-44791334D01*
X31694381Y-45743715D02*
X31694381Y-45172286D01*
X31694381Y-45458000D02*
X30694381Y-45458000D01*
X30837238Y-45362762D01*
X30932476Y-45267524D01*
X30980095Y-45172286D01*
X38076143Y-43890334D02*
X38123762Y-43842715D01*
X38171381Y-43699858D01*
X38171381Y-43604620D01*
X38123762Y-43461762D01*
X38028524Y-43366524D01*
X37933286Y-43318905D01*
X37742810Y-43271286D01*
X37599952Y-43271286D01*
X37409476Y-43318905D01*
X37314238Y-43366524D01*
X37219000Y-43461762D01*
X37171381Y-43604620D01*
X37171381Y-43699858D01*
X37219000Y-43842715D01*
X37266619Y-43890334D01*
X37266619Y-44271286D02*
X37219000Y-44318905D01*
X37171381Y-44414143D01*
X37171381Y-44652239D01*
X37219000Y-44747477D01*
X37266619Y-44795096D01*
X37361857Y-44842715D01*
X37457095Y-44842715D01*
X37599952Y-44795096D01*
X38171381Y-44223667D01*
X38171381Y-44842715D01*
X33567666Y-21820143D02*
X33615285Y-21867762D01*
X33758142Y-21915381D01*
X33853380Y-21915381D01*
X33996238Y-21867762D01*
X34091476Y-21772524D01*
X34139095Y-21677286D01*
X34186714Y-21486810D01*
X34186714Y-21343952D01*
X34139095Y-21153476D01*
X34091476Y-21058238D01*
X33996238Y-20963000D01*
X33853380Y-20915381D01*
X33758142Y-20915381D01*
X33615285Y-20963000D01*
X33567666Y-21010619D01*
X33234333Y-20915381D02*
X32615285Y-20915381D01*
X32948619Y-21296333D01*
X32805761Y-21296333D01*
X32710523Y-21343952D01*
X32662904Y-21391571D01*
X32615285Y-21486810D01*
X32615285Y-21724905D01*
X32662904Y-21820143D01*
X32710523Y-21867762D01*
X32805761Y-21915381D01*
X33091476Y-21915381D01*
X33186714Y-21867762D01*
X33234333Y-21820143D01*
X30583143Y-38060334D02*
X30630762Y-38012715D01*
X30678381Y-37869858D01*
X30678381Y-37774620D01*
X30630762Y-37631762D01*
X30535524Y-37536524D01*
X30440286Y-37488905D01*
X30249810Y-37441286D01*
X30106952Y-37441286D01*
X29916476Y-37488905D01*
X29821238Y-37536524D01*
X29726000Y-37631762D01*
X29678381Y-37774620D01*
X29678381Y-37869858D01*
X29726000Y-38012715D01*
X29773619Y-38060334D01*
X30011714Y-38917477D02*
X30678381Y-38917477D01*
X29630762Y-38679381D02*
X30345048Y-38441286D01*
X30345048Y-39060334D01*
X35790143Y-21042334D02*
X35837762Y-20994715D01*
X35885381Y-20851858D01*
X35885381Y-20756620D01*
X35837762Y-20613762D01*
X35742524Y-20518524D01*
X35647286Y-20470905D01*
X35456810Y-20423286D01*
X35313952Y-20423286D01*
X35123476Y-20470905D01*
X35028238Y-20518524D01*
X34933000Y-20613762D01*
X34885381Y-20756620D01*
X34885381Y-20851858D01*
X34933000Y-20994715D01*
X34980619Y-21042334D01*
X34885381Y-21947096D02*
X34885381Y-21470905D01*
X35361571Y-21423286D01*
X35313952Y-21470905D01*
X35266333Y-21566143D01*
X35266333Y-21804239D01*
X35313952Y-21899477D01*
X35361571Y-21947096D01*
X35456810Y-21994715D01*
X35694905Y-21994715D01*
X35790143Y-21947096D01*
X35837762Y-21899477D01*
X35885381Y-21804239D01*
X35885381Y-21566143D01*
X35837762Y-21470905D01*
X35790143Y-21423286D01*
X29821143Y-19391334D02*
X29868762Y-19343715D01*
X29916381Y-19200858D01*
X29916381Y-19105620D01*
X29868762Y-18962762D01*
X29773524Y-18867524D01*
X29678286Y-18819905D01*
X29487810Y-18772286D01*
X29344952Y-18772286D01*
X29154476Y-18819905D01*
X29059238Y-18867524D01*
X28964000Y-18962762D01*
X28916381Y-19105620D01*
X28916381Y-19200858D01*
X28964000Y-19343715D01*
X29011619Y-19391334D01*
X28916381Y-20248477D02*
X28916381Y-20058000D01*
X28964000Y-19962762D01*
X29011619Y-19915143D01*
X29154476Y-19819905D01*
X29344952Y-19772286D01*
X29725905Y-19772286D01*
X29821143Y-19819905D01*
X29868762Y-19867524D01*
X29916381Y-19962762D01*
X29916381Y-20153239D01*
X29868762Y-20248477D01*
X29821143Y-20296096D01*
X29725905Y-20343715D01*
X29487810Y-20343715D01*
X29392571Y-20296096D01*
X29344952Y-20248477D01*
X29297333Y-20153239D01*
X29297333Y-19962762D01*
X29344952Y-19867524D01*
X29392571Y-19819905D01*
X29487810Y-19772286D01*
X31599143Y-19391334D02*
X31646762Y-19343715D01*
X31694381Y-19200858D01*
X31694381Y-19105620D01*
X31646762Y-18962762D01*
X31551524Y-18867524D01*
X31456286Y-18819905D01*
X31265810Y-18772286D01*
X31122952Y-18772286D01*
X30932476Y-18819905D01*
X30837238Y-18867524D01*
X30742000Y-18962762D01*
X30694381Y-19105620D01*
X30694381Y-19200858D01*
X30742000Y-19343715D01*
X30789619Y-19391334D01*
X30694381Y-19724667D02*
X30694381Y-20391334D01*
X31694381Y-19962762D01*
X38012666Y-30964143D02*
X38060285Y-31011762D01*
X38203142Y-31059381D01*
X38298380Y-31059381D01*
X38441238Y-31011762D01*
X38536476Y-30916524D01*
X38584095Y-30821286D01*
X38631714Y-30630810D01*
X38631714Y-30487952D01*
X38584095Y-30297476D01*
X38536476Y-30202238D01*
X38441238Y-30107000D01*
X38298380Y-30059381D01*
X38203142Y-30059381D01*
X38060285Y-30107000D01*
X38012666Y-30154619D01*
X37441238Y-30487952D02*
X37536476Y-30440333D01*
X37584095Y-30392714D01*
X37631714Y-30297476D01*
X37631714Y-30249857D01*
X37584095Y-30154619D01*
X37536476Y-30107000D01*
X37441238Y-30059381D01*
X37250761Y-30059381D01*
X37155523Y-30107000D01*
X37107904Y-30154619D01*
X37060285Y-30249857D01*
X37060285Y-30297476D01*
X37107904Y-30392714D01*
X37155523Y-30440333D01*
X37250761Y-30487952D01*
X37441238Y-30487952D01*
X37536476Y-30535571D01*
X37584095Y-30583190D01*
X37631714Y-30678429D01*
X37631714Y-30868905D01*
X37584095Y-30964143D01*
X37536476Y-31011762D01*
X37441238Y-31059381D01*
X37250761Y-31059381D01*
X37155523Y-31011762D01*
X37107904Y-30964143D01*
X37060285Y-30868905D01*
X37060285Y-30678429D01*
X37107904Y-30583190D01*
X37155523Y-30535571D01*
X37250761Y-30487952D01*
X38012666Y-28424143D02*
X38060285Y-28471762D01*
X38203142Y-28519381D01*
X38298380Y-28519381D01*
X38441238Y-28471762D01*
X38536476Y-28376524D01*
X38584095Y-28281286D01*
X38631714Y-28090810D01*
X38631714Y-27947952D01*
X38584095Y-27757476D01*
X38536476Y-27662238D01*
X38441238Y-27567000D01*
X38298380Y-27519381D01*
X38203142Y-27519381D01*
X38060285Y-27567000D01*
X38012666Y-27614619D01*
X37536476Y-28519381D02*
X37346000Y-28519381D01*
X37250761Y-28471762D01*
X37203142Y-28424143D01*
X37107904Y-28281286D01*
X37060285Y-28090810D01*
X37060285Y-27709857D01*
X37107904Y-27614619D01*
X37155523Y-27567000D01*
X37250761Y-27519381D01*
X37441238Y-27519381D01*
X37536476Y-27567000D01*
X37584095Y-27614619D01*
X37631714Y-27709857D01*
X37631714Y-27947952D01*
X37584095Y-28043190D01*
X37536476Y-28090810D01*
X37441238Y-28138429D01*
X37250761Y-28138429D01*
X37155523Y-28090810D01*
X37107904Y-28043190D01*
X37060285Y-27947952D01*
X32329381Y-37933334D02*
X32329381Y-37457143D01*
X31329381Y-37457143D01*
X32329381Y-38790477D02*
X32329381Y-38219048D01*
X32329381Y-38504762D02*
X31329381Y-38504762D01*
X31472238Y-38409524D01*
X31567476Y-38314286D01*
X31615095Y-38219048D01*
X37504666Y-35250381D02*
X37980857Y-35250381D01*
X37980857Y-34250381D01*
X37218952Y-34345619D02*
X37171333Y-34298000D01*
X37076095Y-34250381D01*
X36837999Y-34250381D01*
X36742761Y-34298000D01*
X36695142Y-34345619D01*
X36647523Y-34440857D01*
X36647523Y-34536095D01*
X36695142Y-34678952D01*
X37266571Y-35250381D01*
X36647523Y-35250381D01*
X27814095Y-17978381D02*
X27814095Y-16978381D01*
X27433142Y-16978381D01*
X27337904Y-17026000D01*
X27290285Y-17073619D01*
X27242666Y-17168857D01*
X27242666Y-17311714D01*
X27290285Y-17406952D01*
X27337904Y-17454571D01*
X27433142Y-17502190D01*
X27814095Y-17502190D01*
X26290285Y-17978381D02*
X26861714Y-17978381D01*
X26576000Y-17978381D02*
X26576000Y-16978381D01*
X26671238Y-17121238D01*
X26766476Y-17216476D01*
X26861714Y-17264095D01*
X43047095Y-18105381D02*
X43047095Y-17105381D01*
X42666142Y-17105381D01*
X42570904Y-17153000D01*
X42523285Y-17200619D01*
X42475666Y-17295857D01*
X42475666Y-17438714D01*
X42523285Y-17533952D01*
X42570904Y-17581571D01*
X42666142Y-17629190D01*
X43047095Y-17629190D01*
X42094714Y-17200619D02*
X42047095Y-17153000D01*
X41951857Y-17105381D01*
X41713761Y-17105381D01*
X41618523Y-17153000D01*
X41570904Y-17200619D01*
X41523285Y-17295857D01*
X41523285Y-17391095D01*
X41570904Y-17533952D01*
X42142333Y-18105381D01*
X41523285Y-18105381D01*
X36107666Y-25217381D02*
X36441000Y-24741190D01*
X36679095Y-25217381D02*
X36679095Y-24217381D01*
X36298142Y-24217381D01*
X36202904Y-24265000D01*
X36155285Y-24312619D01*
X36107666Y-24407857D01*
X36107666Y-24550714D01*
X36155285Y-24645952D01*
X36202904Y-24693571D01*
X36298142Y-24741190D01*
X36679095Y-24741190D01*
X35726714Y-24312619D02*
X35679095Y-24265000D01*
X35583857Y-24217381D01*
X35345761Y-24217381D01*
X35250523Y-24265000D01*
X35202904Y-24312619D01*
X35155285Y-24407857D01*
X35155285Y-24503095D01*
X35202904Y-24645952D01*
X35774333Y-25217381D01*
X35155285Y-25217381D01*
X39524666Y-24704381D02*
X39858000Y-24228190D01*
X40096095Y-24704381D02*
X40096095Y-23704381D01*
X39715142Y-23704381D01*
X39619904Y-23752000D01*
X39572285Y-23799619D01*
X39524666Y-23894857D01*
X39524666Y-24037714D01*
X39572285Y-24132952D01*
X39619904Y-24180571D01*
X39715142Y-24228190D01*
X40096095Y-24228190D01*
X39191333Y-23704381D02*
X38572285Y-23704381D01*
X38905619Y-24085333D01*
X38762761Y-24085333D01*
X38667523Y-24132952D01*
X38619904Y-24180571D01*
X38572285Y-24275810D01*
X38572285Y-24513905D01*
X38619904Y-24609143D01*
X38667523Y-24656762D01*
X38762761Y-24704381D01*
X39048476Y-24704381D01*
X39143714Y-24656762D01*
X39191333Y-24609143D01*
X35255905Y-47468381D02*
X35255905Y-48277905D01*
X35208286Y-48373143D01*
X35160667Y-48420762D01*
X35065429Y-48468381D01*
X34874952Y-48468381D01*
X34779714Y-48420762D01*
X34732095Y-48373143D01*
X34684476Y-48277905D01*
X34684476Y-47468381D01*
X34255905Y-47563619D02*
X34208286Y-47516000D01*
X34113048Y-47468381D01*
X33874952Y-47468381D01*
X33779714Y-47516000D01*
X33732095Y-47563619D01*
X33684476Y-47658857D01*
X33684476Y-47754095D01*
X33732095Y-47896952D01*
X34303524Y-48468381D01*
X33684476Y-48468381D01*
X29948190Y-28860809D02*
X30424381Y-28860809D01*
X29424381Y-28527476D02*
X29948190Y-28860809D01*
X29424381Y-29194143D01*
X30424381Y-30051286D02*
X30424381Y-29479857D01*
X30424381Y-29765571D02*
X29424381Y-29765571D01*
X29567238Y-29670333D01*
X29662476Y-29575095D01*
X29710095Y-29479857D01*
M02*
