G04 #@! TF.FileFunction,Copper,L3,Inr,Signal*
%FSLAX46Y46*%
G04 Gerber Fmt 4.6, Leading zero omitted, Abs format (unit mm)*
G04 Created by KiCad (PCBNEW 4.0.2-stable) date 10/8/2016 11:45:13 AM*
%MOMM*%
G01*
G04 APERTURE LIST*
%ADD10C,0.100000*%
%ADD11R,2.032000X1.727200*%
%ADD12O,2.032000X1.727200*%
%ADD13C,0.600000*%
%ADD14C,0.254000*%
G04 APERTURE END LIST*
D10*
D11*
X27000000Y-20000000D03*
D12*
X27000000Y-22540000D03*
X27000000Y-25080000D03*
X27000000Y-27620000D03*
X27000000Y-30160000D03*
X27000000Y-32700000D03*
X27000000Y-35240000D03*
X27000000Y-37780000D03*
X27000000Y-40320000D03*
X27000000Y-42860000D03*
X27000000Y-45400000D03*
X27000000Y-47940000D03*
D11*
X42300000Y-20000000D03*
D12*
X42300000Y-22540000D03*
X42300000Y-25080000D03*
X42300000Y-27620000D03*
X42300000Y-30160000D03*
X42300000Y-32700000D03*
X42300000Y-35240000D03*
X42300000Y-37780000D03*
X42300000Y-40320000D03*
X42300000Y-42860000D03*
X42300000Y-45400000D03*
X42300000Y-47940000D03*
D13*
X39808011Y-33274000D03*
X29591000Y-32639000D03*
X29718000Y-36957000D03*
X37084000Y-23241000D03*
X34036000Y-21844000D03*
X32385000Y-20955000D03*
X36066000Y-29718000D03*
X36066000Y-27178000D03*
X32258000Y-48639000D03*
X37970000Y-48387000D03*
X34417000Y-45593000D03*
X29083000Y-35560000D03*
X34417000Y-25731000D03*
X32258000Y-41276080D03*
X38100000Y-20701000D03*
X32258000Y-29591000D03*
X31496000Y-29210000D03*
X31106204Y-35788039D03*
X37846000Y-24003000D03*
X35052000Y-37338000D03*
D14*
G36*
X40832559Y-18672310D02*
X40687569Y-18884510D01*
X40636560Y-19136400D01*
X40636560Y-20863600D01*
X40680838Y-21098917D01*
X40819910Y-21315041D01*
X41032110Y-21460031D01*
X41073439Y-21468400D01*
X41055585Y-21480330D01*
X40730729Y-21966511D01*
X40616655Y-22540000D01*
X40730729Y-23113489D01*
X41055585Y-23599670D01*
X41370366Y-23810000D01*
X41055585Y-24020330D01*
X40730729Y-24506511D01*
X40616655Y-25080000D01*
X40730729Y-25653489D01*
X41055585Y-26139670D01*
X41370366Y-26350000D01*
X41055585Y-26560330D01*
X40730729Y-27046511D01*
X40616655Y-27620000D01*
X40730729Y-28193489D01*
X41055585Y-28679670D01*
X41370366Y-28890000D01*
X41055585Y-29100330D01*
X40730729Y-29586511D01*
X40616655Y-30160000D01*
X40730729Y-30733489D01*
X41055585Y-31219670D01*
X41370366Y-31430000D01*
X41055585Y-31640330D01*
X40730729Y-32126511D01*
X40616655Y-32700000D01*
X40648351Y-32859345D01*
X40601128Y-32745057D01*
X40338338Y-32481808D01*
X39994810Y-32339162D01*
X39622844Y-32338838D01*
X39279068Y-32480883D01*
X39015819Y-32743673D01*
X38873173Y-33087201D01*
X38872849Y-33459167D01*
X39014894Y-33802943D01*
X39277684Y-34066192D01*
X39621212Y-34208838D01*
X39993178Y-34209162D01*
X40336954Y-34067117D01*
X40600203Y-33804327D01*
X40742849Y-33460799D01*
X40742996Y-33291848D01*
X41055585Y-33759670D01*
X41370366Y-33970000D01*
X41055585Y-34180330D01*
X40730729Y-34666511D01*
X40616655Y-35240000D01*
X40730729Y-35813489D01*
X41055585Y-36299670D01*
X41370366Y-36510000D01*
X41055585Y-36720330D01*
X40730729Y-37206511D01*
X40616655Y-37780000D01*
X40730729Y-38353489D01*
X41055585Y-38839670D01*
X41370366Y-39050000D01*
X41055585Y-39260330D01*
X40730729Y-39746511D01*
X40616655Y-40320000D01*
X40730729Y-40893489D01*
X41055585Y-41379670D01*
X41370366Y-41590000D01*
X41055585Y-41800330D01*
X40730729Y-42286511D01*
X40616655Y-42860000D01*
X40730729Y-43433489D01*
X41055585Y-43919670D01*
X41370366Y-44130000D01*
X41055585Y-44340330D01*
X40730729Y-44826511D01*
X40616655Y-45400000D01*
X40730729Y-45973489D01*
X41055585Y-46459670D01*
X41365069Y-46666461D01*
X40949268Y-47037964D01*
X40695291Y-47565209D01*
X40692642Y-47580974D01*
X40813783Y-47813000D01*
X42173000Y-47813000D01*
X42173000Y-47793000D01*
X42427000Y-47793000D01*
X42427000Y-47813000D01*
X42447000Y-47813000D01*
X42447000Y-48067000D01*
X42427000Y-48067000D01*
X42427000Y-48087000D01*
X42173000Y-48087000D01*
X42173000Y-48067000D01*
X40813783Y-48067000D01*
X40692642Y-48299026D01*
X40695291Y-48314791D01*
X40949268Y-48842036D01*
X41208891Y-49074000D01*
X38605245Y-49074000D01*
X38762192Y-48917327D01*
X38904838Y-48573799D01*
X38905162Y-48201833D01*
X38763117Y-47858057D01*
X38500327Y-47594808D01*
X38156799Y-47452162D01*
X37784833Y-47451838D01*
X37441057Y-47593883D01*
X37177808Y-47856673D01*
X37035162Y-48200201D01*
X37034838Y-48572167D01*
X37176883Y-48915943D01*
X37334664Y-49074000D01*
X34802741Y-49074000D01*
X33099207Y-49051286D01*
X33192838Y-48825799D01*
X33193162Y-48453833D01*
X33051117Y-48110057D01*
X32788327Y-47846808D01*
X32444799Y-47704162D01*
X32072833Y-47703838D01*
X31729057Y-47845883D01*
X31465808Y-48108673D01*
X31323162Y-48452201D01*
X31322838Y-48824167D01*
X31407361Y-49028728D01*
X28253100Y-48986671D01*
X28569271Y-48513489D01*
X28683345Y-47940000D01*
X28569271Y-47366511D01*
X28244415Y-46880330D01*
X27929634Y-46670000D01*
X28244415Y-46459670D01*
X28569271Y-45973489D01*
X28608122Y-45778167D01*
X33481838Y-45778167D01*
X33623883Y-46121943D01*
X33886673Y-46385192D01*
X34230201Y-46527838D01*
X34602167Y-46528162D01*
X34945943Y-46386117D01*
X35209192Y-46123327D01*
X35351838Y-45779799D01*
X35352162Y-45407833D01*
X35210117Y-45064057D01*
X34947327Y-44800808D01*
X34603799Y-44658162D01*
X34231833Y-44657838D01*
X33888057Y-44799883D01*
X33624808Y-45062673D01*
X33482162Y-45406201D01*
X33481838Y-45778167D01*
X28608122Y-45778167D01*
X28683345Y-45400000D01*
X28569271Y-44826511D01*
X28244415Y-44340330D01*
X27929634Y-44130000D01*
X28244415Y-43919670D01*
X28569271Y-43433489D01*
X28683345Y-42860000D01*
X28569271Y-42286511D01*
X28244415Y-41800330D01*
X27929634Y-41590000D01*
X28244415Y-41379670D01*
X28569271Y-40893489D01*
X28683345Y-40320000D01*
X28569271Y-39746511D01*
X28244415Y-39260330D01*
X27929634Y-39050000D01*
X28244415Y-38839670D01*
X28569271Y-38353489D01*
X28683345Y-37780000D01*
X28569271Y-37206511D01*
X28526278Y-37142167D01*
X28782838Y-37142167D01*
X28924883Y-37485943D01*
X29187673Y-37749192D01*
X29531201Y-37891838D01*
X29903167Y-37892162D01*
X30246943Y-37750117D01*
X30474289Y-37523167D01*
X34116838Y-37523167D01*
X34258883Y-37866943D01*
X34521673Y-38130192D01*
X34865201Y-38272838D01*
X35237167Y-38273162D01*
X35580943Y-38131117D01*
X35844192Y-37868327D01*
X35986838Y-37524799D01*
X35987162Y-37152833D01*
X35845117Y-36809057D01*
X35582327Y-36545808D01*
X35238799Y-36403162D01*
X34866833Y-36402838D01*
X34523057Y-36544883D01*
X34259808Y-36807673D01*
X34117162Y-37151201D01*
X34116838Y-37523167D01*
X30474289Y-37523167D01*
X30510192Y-37487327D01*
X30652838Y-37143799D01*
X30653162Y-36771833D01*
X30572664Y-36577012D01*
X30575877Y-36580231D01*
X30919405Y-36722877D01*
X31291371Y-36723201D01*
X31635147Y-36581156D01*
X31898396Y-36318366D01*
X32041042Y-35974838D01*
X32041366Y-35602872D01*
X31899321Y-35259096D01*
X31636531Y-34995847D01*
X31293003Y-34853201D01*
X30921037Y-34852877D01*
X30577261Y-34994922D01*
X30314012Y-35257712D01*
X30171366Y-35601240D01*
X30171042Y-35973206D01*
X30251540Y-36168027D01*
X30248327Y-36164808D01*
X29904799Y-36022162D01*
X29532833Y-36021838D01*
X29189057Y-36163883D01*
X28925808Y-36426673D01*
X28783162Y-36770201D01*
X28782838Y-37142167D01*
X28526278Y-37142167D01*
X28244415Y-36720330D01*
X27929634Y-36510000D01*
X28244415Y-36299670D01*
X28569271Y-35813489D01*
X28683345Y-35240000D01*
X28569271Y-34666511D01*
X28244415Y-34180330D01*
X27929634Y-33970000D01*
X28244415Y-33759670D01*
X28569271Y-33273489D01*
X28657734Y-32828756D01*
X28797883Y-33167943D01*
X29060673Y-33431192D01*
X29404201Y-33573838D01*
X29776167Y-33574162D01*
X30119943Y-33432117D01*
X30383192Y-33169327D01*
X30525838Y-32825799D01*
X30526162Y-32453833D01*
X30384117Y-32110057D01*
X30121327Y-31846808D01*
X29777799Y-31704162D01*
X29405833Y-31703838D01*
X29062057Y-31845883D01*
X28798808Y-32108673D01*
X28656162Y-32452201D01*
X28656066Y-32562857D01*
X28569271Y-32126511D01*
X28244415Y-31640330D01*
X27929634Y-31430000D01*
X28244415Y-31219670D01*
X28569271Y-30733489D01*
X28683345Y-30160000D01*
X28569271Y-29586511D01*
X28441419Y-29395167D01*
X30560838Y-29395167D01*
X30702883Y-29738943D01*
X30965673Y-30002192D01*
X31309201Y-30144838D01*
X31489892Y-30144995D01*
X31727673Y-30383192D01*
X32071201Y-30525838D01*
X32443167Y-30526162D01*
X32786943Y-30384117D01*
X33050192Y-30121327D01*
X33140780Y-29903167D01*
X35130838Y-29903167D01*
X35272883Y-30246943D01*
X35535673Y-30510192D01*
X35879201Y-30652838D01*
X36251167Y-30653162D01*
X36594943Y-30511117D01*
X36858192Y-30248327D01*
X37000838Y-29904799D01*
X37001162Y-29532833D01*
X36859117Y-29189057D01*
X36596327Y-28925808D01*
X36252799Y-28783162D01*
X35880833Y-28782838D01*
X35537057Y-28924883D01*
X35273808Y-29187673D01*
X35131162Y-29531201D01*
X35130838Y-29903167D01*
X33140780Y-29903167D01*
X33192838Y-29777799D01*
X33193162Y-29405833D01*
X33051117Y-29062057D01*
X32788327Y-28798808D01*
X32444799Y-28656162D01*
X32264108Y-28656005D01*
X32026327Y-28417808D01*
X31682799Y-28275162D01*
X31310833Y-28274838D01*
X30967057Y-28416883D01*
X30703808Y-28679673D01*
X30561162Y-29023201D01*
X30560838Y-29395167D01*
X28441419Y-29395167D01*
X28244415Y-29100330D01*
X27929634Y-28890000D01*
X28244415Y-28679670D01*
X28569271Y-28193489D01*
X28683345Y-27620000D01*
X28632258Y-27363167D01*
X35130838Y-27363167D01*
X35272883Y-27706943D01*
X35535673Y-27970192D01*
X35879201Y-28112838D01*
X36251167Y-28113162D01*
X36594943Y-27971117D01*
X36858192Y-27708327D01*
X37000838Y-27364799D01*
X37001162Y-26992833D01*
X36859117Y-26649057D01*
X36596327Y-26385808D01*
X36252799Y-26243162D01*
X35880833Y-26242838D01*
X35537057Y-26384883D01*
X35273808Y-26647673D01*
X35131162Y-26991201D01*
X35130838Y-27363167D01*
X28632258Y-27363167D01*
X28569271Y-27046511D01*
X28244415Y-26560330D01*
X27929634Y-26350000D01*
X28244415Y-26139670D01*
X28569271Y-25653489D01*
X28683345Y-25080000D01*
X28569271Y-24506511D01*
X28244415Y-24020330D01*
X27929634Y-23810000D01*
X28244415Y-23599670D01*
X28360346Y-23426167D01*
X36148838Y-23426167D01*
X36290883Y-23769943D01*
X36553673Y-24033192D01*
X36897201Y-24175838D01*
X36910849Y-24175850D01*
X36910838Y-24188167D01*
X37052883Y-24531943D01*
X37315673Y-24795192D01*
X37659201Y-24937838D01*
X38031167Y-24938162D01*
X38374943Y-24796117D01*
X38638192Y-24533327D01*
X38780838Y-24189799D01*
X38781162Y-23817833D01*
X38639117Y-23474057D01*
X38376327Y-23210808D01*
X38032799Y-23068162D01*
X38019151Y-23068150D01*
X38019162Y-23055833D01*
X37877117Y-22712057D01*
X37614327Y-22448808D01*
X37270799Y-22306162D01*
X36898833Y-22305838D01*
X36555057Y-22447883D01*
X36291808Y-22710673D01*
X36149162Y-23054201D01*
X36148838Y-23426167D01*
X28360346Y-23426167D01*
X28569271Y-23113489D01*
X28683345Y-22540000D01*
X28569271Y-21966511D01*
X28244415Y-21480330D01*
X28230087Y-21470757D01*
X28251317Y-21466762D01*
X28467441Y-21327690D01*
X28595569Y-21140167D01*
X31449838Y-21140167D01*
X31591883Y-21483943D01*
X31854673Y-21747192D01*
X32198201Y-21889838D01*
X32570167Y-21890162D01*
X32913943Y-21748117D01*
X33169231Y-21493275D01*
X33101162Y-21657201D01*
X33100838Y-22029167D01*
X33242883Y-22372943D01*
X33505673Y-22636192D01*
X33849201Y-22778838D01*
X34221167Y-22779162D01*
X34564943Y-22637117D01*
X34828192Y-22374327D01*
X34970838Y-22030799D01*
X34971162Y-21658833D01*
X34829117Y-21315057D01*
X34566327Y-21051808D01*
X34222799Y-20909162D01*
X33850833Y-20908838D01*
X33507057Y-21050883D01*
X33251769Y-21305725D01*
X33319838Y-21141799D01*
X33320060Y-20886167D01*
X37164838Y-20886167D01*
X37306883Y-21229943D01*
X37569673Y-21493192D01*
X37913201Y-21635838D01*
X38285167Y-21636162D01*
X38628943Y-21494117D01*
X38892192Y-21231327D01*
X39034838Y-20887799D01*
X39035162Y-20515833D01*
X38893117Y-20172057D01*
X38630327Y-19908808D01*
X38286799Y-19766162D01*
X37914833Y-19765838D01*
X37571057Y-19907883D01*
X37307808Y-20170673D01*
X37165162Y-20514201D01*
X37164838Y-20886167D01*
X33320060Y-20886167D01*
X33320162Y-20769833D01*
X33178117Y-20426057D01*
X32915327Y-20162808D01*
X32571799Y-20020162D01*
X32199833Y-20019838D01*
X31856057Y-20161883D01*
X31592808Y-20424673D01*
X31450162Y-20768201D01*
X31449838Y-21140167D01*
X28595569Y-21140167D01*
X28612431Y-21115490D01*
X28663440Y-20863600D01*
X28663440Y-19136400D01*
X28619162Y-18901083D01*
X28480090Y-18684959D01*
X28270862Y-18542000D01*
X41035066Y-18542000D01*
X40832559Y-18672310D01*
X40832559Y-18672310D01*
G37*
X40832559Y-18672310D02*
X40687569Y-18884510D01*
X40636560Y-19136400D01*
X40636560Y-20863600D01*
X40680838Y-21098917D01*
X40819910Y-21315041D01*
X41032110Y-21460031D01*
X41073439Y-21468400D01*
X41055585Y-21480330D01*
X40730729Y-21966511D01*
X40616655Y-22540000D01*
X40730729Y-23113489D01*
X41055585Y-23599670D01*
X41370366Y-23810000D01*
X41055585Y-24020330D01*
X40730729Y-24506511D01*
X40616655Y-25080000D01*
X40730729Y-25653489D01*
X41055585Y-26139670D01*
X41370366Y-26350000D01*
X41055585Y-26560330D01*
X40730729Y-27046511D01*
X40616655Y-27620000D01*
X40730729Y-28193489D01*
X41055585Y-28679670D01*
X41370366Y-28890000D01*
X41055585Y-29100330D01*
X40730729Y-29586511D01*
X40616655Y-30160000D01*
X40730729Y-30733489D01*
X41055585Y-31219670D01*
X41370366Y-31430000D01*
X41055585Y-31640330D01*
X40730729Y-32126511D01*
X40616655Y-32700000D01*
X40648351Y-32859345D01*
X40601128Y-32745057D01*
X40338338Y-32481808D01*
X39994810Y-32339162D01*
X39622844Y-32338838D01*
X39279068Y-32480883D01*
X39015819Y-32743673D01*
X38873173Y-33087201D01*
X38872849Y-33459167D01*
X39014894Y-33802943D01*
X39277684Y-34066192D01*
X39621212Y-34208838D01*
X39993178Y-34209162D01*
X40336954Y-34067117D01*
X40600203Y-33804327D01*
X40742849Y-33460799D01*
X40742996Y-33291848D01*
X41055585Y-33759670D01*
X41370366Y-33970000D01*
X41055585Y-34180330D01*
X40730729Y-34666511D01*
X40616655Y-35240000D01*
X40730729Y-35813489D01*
X41055585Y-36299670D01*
X41370366Y-36510000D01*
X41055585Y-36720330D01*
X40730729Y-37206511D01*
X40616655Y-37780000D01*
X40730729Y-38353489D01*
X41055585Y-38839670D01*
X41370366Y-39050000D01*
X41055585Y-39260330D01*
X40730729Y-39746511D01*
X40616655Y-40320000D01*
X40730729Y-40893489D01*
X41055585Y-41379670D01*
X41370366Y-41590000D01*
X41055585Y-41800330D01*
X40730729Y-42286511D01*
X40616655Y-42860000D01*
X40730729Y-43433489D01*
X41055585Y-43919670D01*
X41370366Y-44130000D01*
X41055585Y-44340330D01*
X40730729Y-44826511D01*
X40616655Y-45400000D01*
X40730729Y-45973489D01*
X41055585Y-46459670D01*
X41365069Y-46666461D01*
X40949268Y-47037964D01*
X40695291Y-47565209D01*
X40692642Y-47580974D01*
X40813783Y-47813000D01*
X42173000Y-47813000D01*
X42173000Y-47793000D01*
X42427000Y-47793000D01*
X42427000Y-47813000D01*
X42447000Y-47813000D01*
X42447000Y-48067000D01*
X42427000Y-48067000D01*
X42427000Y-48087000D01*
X42173000Y-48087000D01*
X42173000Y-48067000D01*
X40813783Y-48067000D01*
X40692642Y-48299026D01*
X40695291Y-48314791D01*
X40949268Y-48842036D01*
X41208891Y-49074000D01*
X38605245Y-49074000D01*
X38762192Y-48917327D01*
X38904838Y-48573799D01*
X38905162Y-48201833D01*
X38763117Y-47858057D01*
X38500327Y-47594808D01*
X38156799Y-47452162D01*
X37784833Y-47451838D01*
X37441057Y-47593883D01*
X37177808Y-47856673D01*
X37035162Y-48200201D01*
X37034838Y-48572167D01*
X37176883Y-48915943D01*
X37334664Y-49074000D01*
X34802741Y-49074000D01*
X33099207Y-49051286D01*
X33192838Y-48825799D01*
X33193162Y-48453833D01*
X33051117Y-48110057D01*
X32788327Y-47846808D01*
X32444799Y-47704162D01*
X32072833Y-47703838D01*
X31729057Y-47845883D01*
X31465808Y-48108673D01*
X31323162Y-48452201D01*
X31322838Y-48824167D01*
X31407361Y-49028728D01*
X28253100Y-48986671D01*
X28569271Y-48513489D01*
X28683345Y-47940000D01*
X28569271Y-47366511D01*
X28244415Y-46880330D01*
X27929634Y-46670000D01*
X28244415Y-46459670D01*
X28569271Y-45973489D01*
X28608122Y-45778167D01*
X33481838Y-45778167D01*
X33623883Y-46121943D01*
X33886673Y-46385192D01*
X34230201Y-46527838D01*
X34602167Y-46528162D01*
X34945943Y-46386117D01*
X35209192Y-46123327D01*
X35351838Y-45779799D01*
X35352162Y-45407833D01*
X35210117Y-45064057D01*
X34947327Y-44800808D01*
X34603799Y-44658162D01*
X34231833Y-44657838D01*
X33888057Y-44799883D01*
X33624808Y-45062673D01*
X33482162Y-45406201D01*
X33481838Y-45778167D01*
X28608122Y-45778167D01*
X28683345Y-45400000D01*
X28569271Y-44826511D01*
X28244415Y-44340330D01*
X27929634Y-44130000D01*
X28244415Y-43919670D01*
X28569271Y-43433489D01*
X28683345Y-42860000D01*
X28569271Y-42286511D01*
X28244415Y-41800330D01*
X27929634Y-41590000D01*
X28244415Y-41379670D01*
X28569271Y-40893489D01*
X28683345Y-40320000D01*
X28569271Y-39746511D01*
X28244415Y-39260330D01*
X27929634Y-39050000D01*
X28244415Y-38839670D01*
X28569271Y-38353489D01*
X28683345Y-37780000D01*
X28569271Y-37206511D01*
X28526278Y-37142167D01*
X28782838Y-37142167D01*
X28924883Y-37485943D01*
X29187673Y-37749192D01*
X29531201Y-37891838D01*
X29903167Y-37892162D01*
X30246943Y-37750117D01*
X30474289Y-37523167D01*
X34116838Y-37523167D01*
X34258883Y-37866943D01*
X34521673Y-38130192D01*
X34865201Y-38272838D01*
X35237167Y-38273162D01*
X35580943Y-38131117D01*
X35844192Y-37868327D01*
X35986838Y-37524799D01*
X35987162Y-37152833D01*
X35845117Y-36809057D01*
X35582327Y-36545808D01*
X35238799Y-36403162D01*
X34866833Y-36402838D01*
X34523057Y-36544883D01*
X34259808Y-36807673D01*
X34117162Y-37151201D01*
X34116838Y-37523167D01*
X30474289Y-37523167D01*
X30510192Y-37487327D01*
X30652838Y-37143799D01*
X30653162Y-36771833D01*
X30572664Y-36577012D01*
X30575877Y-36580231D01*
X30919405Y-36722877D01*
X31291371Y-36723201D01*
X31635147Y-36581156D01*
X31898396Y-36318366D01*
X32041042Y-35974838D01*
X32041366Y-35602872D01*
X31899321Y-35259096D01*
X31636531Y-34995847D01*
X31293003Y-34853201D01*
X30921037Y-34852877D01*
X30577261Y-34994922D01*
X30314012Y-35257712D01*
X30171366Y-35601240D01*
X30171042Y-35973206D01*
X30251540Y-36168027D01*
X30248327Y-36164808D01*
X29904799Y-36022162D01*
X29532833Y-36021838D01*
X29189057Y-36163883D01*
X28925808Y-36426673D01*
X28783162Y-36770201D01*
X28782838Y-37142167D01*
X28526278Y-37142167D01*
X28244415Y-36720330D01*
X27929634Y-36510000D01*
X28244415Y-36299670D01*
X28569271Y-35813489D01*
X28683345Y-35240000D01*
X28569271Y-34666511D01*
X28244415Y-34180330D01*
X27929634Y-33970000D01*
X28244415Y-33759670D01*
X28569271Y-33273489D01*
X28657734Y-32828756D01*
X28797883Y-33167943D01*
X29060673Y-33431192D01*
X29404201Y-33573838D01*
X29776167Y-33574162D01*
X30119943Y-33432117D01*
X30383192Y-33169327D01*
X30525838Y-32825799D01*
X30526162Y-32453833D01*
X30384117Y-32110057D01*
X30121327Y-31846808D01*
X29777799Y-31704162D01*
X29405833Y-31703838D01*
X29062057Y-31845883D01*
X28798808Y-32108673D01*
X28656162Y-32452201D01*
X28656066Y-32562857D01*
X28569271Y-32126511D01*
X28244415Y-31640330D01*
X27929634Y-31430000D01*
X28244415Y-31219670D01*
X28569271Y-30733489D01*
X28683345Y-30160000D01*
X28569271Y-29586511D01*
X28441419Y-29395167D01*
X30560838Y-29395167D01*
X30702883Y-29738943D01*
X30965673Y-30002192D01*
X31309201Y-30144838D01*
X31489892Y-30144995D01*
X31727673Y-30383192D01*
X32071201Y-30525838D01*
X32443167Y-30526162D01*
X32786943Y-30384117D01*
X33050192Y-30121327D01*
X33140780Y-29903167D01*
X35130838Y-29903167D01*
X35272883Y-30246943D01*
X35535673Y-30510192D01*
X35879201Y-30652838D01*
X36251167Y-30653162D01*
X36594943Y-30511117D01*
X36858192Y-30248327D01*
X37000838Y-29904799D01*
X37001162Y-29532833D01*
X36859117Y-29189057D01*
X36596327Y-28925808D01*
X36252799Y-28783162D01*
X35880833Y-28782838D01*
X35537057Y-28924883D01*
X35273808Y-29187673D01*
X35131162Y-29531201D01*
X35130838Y-29903167D01*
X33140780Y-29903167D01*
X33192838Y-29777799D01*
X33193162Y-29405833D01*
X33051117Y-29062057D01*
X32788327Y-28798808D01*
X32444799Y-28656162D01*
X32264108Y-28656005D01*
X32026327Y-28417808D01*
X31682799Y-28275162D01*
X31310833Y-28274838D01*
X30967057Y-28416883D01*
X30703808Y-28679673D01*
X30561162Y-29023201D01*
X30560838Y-29395167D01*
X28441419Y-29395167D01*
X28244415Y-29100330D01*
X27929634Y-28890000D01*
X28244415Y-28679670D01*
X28569271Y-28193489D01*
X28683345Y-27620000D01*
X28632258Y-27363167D01*
X35130838Y-27363167D01*
X35272883Y-27706943D01*
X35535673Y-27970192D01*
X35879201Y-28112838D01*
X36251167Y-28113162D01*
X36594943Y-27971117D01*
X36858192Y-27708327D01*
X37000838Y-27364799D01*
X37001162Y-26992833D01*
X36859117Y-26649057D01*
X36596327Y-26385808D01*
X36252799Y-26243162D01*
X35880833Y-26242838D01*
X35537057Y-26384883D01*
X35273808Y-26647673D01*
X35131162Y-26991201D01*
X35130838Y-27363167D01*
X28632258Y-27363167D01*
X28569271Y-27046511D01*
X28244415Y-26560330D01*
X27929634Y-26350000D01*
X28244415Y-26139670D01*
X28569271Y-25653489D01*
X28683345Y-25080000D01*
X28569271Y-24506511D01*
X28244415Y-24020330D01*
X27929634Y-23810000D01*
X28244415Y-23599670D01*
X28360346Y-23426167D01*
X36148838Y-23426167D01*
X36290883Y-23769943D01*
X36553673Y-24033192D01*
X36897201Y-24175838D01*
X36910849Y-24175850D01*
X36910838Y-24188167D01*
X37052883Y-24531943D01*
X37315673Y-24795192D01*
X37659201Y-24937838D01*
X38031167Y-24938162D01*
X38374943Y-24796117D01*
X38638192Y-24533327D01*
X38780838Y-24189799D01*
X38781162Y-23817833D01*
X38639117Y-23474057D01*
X38376327Y-23210808D01*
X38032799Y-23068162D01*
X38019151Y-23068150D01*
X38019162Y-23055833D01*
X37877117Y-22712057D01*
X37614327Y-22448808D01*
X37270799Y-22306162D01*
X36898833Y-22305838D01*
X36555057Y-22447883D01*
X36291808Y-22710673D01*
X36149162Y-23054201D01*
X36148838Y-23426167D01*
X28360346Y-23426167D01*
X28569271Y-23113489D01*
X28683345Y-22540000D01*
X28569271Y-21966511D01*
X28244415Y-21480330D01*
X28230087Y-21470757D01*
X28251317Y-21466762D01*
X28467441Y-21327690D01*
X28595569Y-21140167D01*
X31449838Y-21140167D01*
X31591883Y-21483943D01*
X31854673Y-21747192D01*
X32198201Y-21889838D01*
X32570167Y-21890162D01*
X32913943Y-21748117D01*
X33169231Y-21493275D01*
X33101162Y-21657201D01*
X33100838Y-22029167D01*
X33242883Y-22372943D01*
X33505673Y-22636192D01*
X33849201Y-22778838D01*
X34221167Y-22779162D01*
X34564943Y-22637117D01*
X34828192Y-22374327D01*
X34970838Y-22030799D01*
X34971162Y-21658833D01*
X34829117Y-21315057D01*
X34566327Y-21051808D01*
X34222799Y-20909162D01*
X33850833Y-20908838D01*
X33507057Y-21050883D01*
X33251769Y-21305725D01*
X33319838Y-21141799D01*
X33320060Y-20886167D01*
X37164838Y-20886167D01*
X37306883Y-21229943D01*
X37569673Y-21493192D01*
X37913201Y-21635838D01*
X38285167Y-21636162D01*
X38628943Y-21494117D01*
X38892192Y-21231327D01*
X39034838Y-20887799D01*
X39035162Y-20515833D01*
X38893117Y-20172057D01*
X38630327Y-19908808D01*
X38286799Y-19766162D01*
X37914833Y-19765838D01*
X37571057Y-19907883D01*
X37307808Y-20170673D01*
X37165162Y-20514201D01*
X37164838Y-20886167D01*
X33320060Y-20886167D01*
X33320162Y-20769833D01*
X33178117Y-20426057D01*
X32915327Y-20162808D01*
X32571799Y-20020162D01*
X32199833Y-20019838D01*
X31856057Y-20161883D01*
X31592808Y-20424673D01*
X31450162Y-20768201D01*
X31449838Y-21140167D01*
X28595569Y-21140167D01*
X28612431Y-21115490D01*
X28663440Y-20863600D01*
X28663440Y-19136400D01*
X28619162Y-18901083D01*
X28480090Y-18684959D01*
X28270862Y-18542000D01*
X41035066Y-18542000D01*
X40832559Y-18672310D01*
M02*
