G04 #@! TF.FileFunction,Copper,L2,Inr,Signal*
%FSLAX46Y46*%
G04 Gerber Fmt 4.6, Leading zero omitted, Abs format (unit mm)*
G04 Created by KiCad (PCBNEW 4.0.2-stable) date 10/8/2016 11:45:13 AM*
%MOMM*%
G01*
G04 APERTURE LIST*
%ADD10C,0.100000*%
%ADD11R,2.032000X1.727200*%
%ADD12O,2.032000X1.727200*%
%ADD13C,0.600000*%
%ADD14C,0.254000*%
G04 APERTURE END LIST*
D10*
D11*
X27000000Y-20000000D03*
D12*
X27000000Y-22540000D03*
X27000000Y-25080000D03*
X27000000Y-27620000D03*
X27000000Y-30160000D03*
X27000000Y-32700000D03*
X27000000Y-35240000D03*
X27000000Y-37780000D03*
X27000000Y-40320000D03*
X27000000Y-42860000D03*
X27000000Y-45400000D03*
X27000000Y-47940000D03*
D11*
X42300000Y-20000000D03*
D12*
X42300000Y-22540000D03*
X42300000Y-25080000D03*
X42300000Y-27620000D03*
X42300000Y-30160000D03*
X42300000Y-32700000D03*
X42300000Y-35240000D03*
X42300000Y-37780000D03*
X42300000Y-40320000D03*
X42300000Y-42860000D03*
X42300000Y-45400000D03*
X42300000Y-47940000D03*
D13*
X39808011Y-33274000D03*
X29591000Y-32639000D03*
X29718000Y-36957000D03*
X37084000Y-23241000D03*
X34036000Y-21844000D03*
X32385000Y-20955000D03*
X36066000Y-29718000D03*
X36066000Y-27178000D03*
X32258000Y-48639000D03*
X37970000Y-48387000D03*
X34417000Y-45593000D03*
X29083000Y-35560000D03*
X34417000Y-25731000D03*
X32258000Y-41276080D03*
X38100000Y-20701000D03*
X32258000Y-29591000D03*
X31496000Y-29210000D03*
X31106204Y-35788039D03*
X37846000Y-24003000D03*
X35052000Y-37338000D03*
D14*
G36*
X40924302Y-18598073D02*
X40745673Y-18776701D01*
X40649000Y-19010090D01*
X40649000Y-19714250D01*
X40807750Y-19873000D01*
X42173000Y-19873000D01*
X42173000Y-19853000D01*
X42427000Y-19853000D01*
X42427000Y-19873000D01*
X42447000Y-19873000D01*
X42447000Y-20127000D01*
X42427000Y-20127000D01*
X42427000Y-20147000D01*
X42173000Y-20147000D01*
X42173000Y-20127000D01*
X40807750Y-20127000D01*
X40649000Y-20285750D01*
X40649000Y-20989910D01*
X40745673Y-21223299D01*
X40924302Y-21401927D01*
X41077780Y-21465500D01*
X41055585Y-21480330D01*
X40730729Y-21966511D01*
X40616655Y-22540000D01*
X40730729Y-23113489D01*
X41055585Y-23599670D01*
X41370366Y-23810000D01*
X41055585Y-24020330D01*
X40730729Y-24506511D01*
X40616655Y-25080000D01*
X40730729Y-25653489D01*
X41055585Y-26139670D01*
X41370366Y-26350000D01*
X41055585Y-26560330D01*
X40730729Y-27046511D01*
X40616655Y-27620000D01*
X40730729Y-28193489D01*
X41055585Y-28679670D01*
X41370366Y-28890000D01*
X41055585Y-29100330D01*
X40730729Y-29586511D01*
X40616655Y-30160000D01*
X40730729Y-30733489D01*
X41055585Y-31219670D01*
X41370366Y-31430000D01*
X41055585Y-31640330D01*
X40730729Y-32126511D01*
X40616655Y-32700000D01*
X40730729Y-33273489D01*
X41055585Y-33759670D01*
X41370366Y-33970000D01*
X41055585Y-34180330D01*
X40730729Y-34666511D01*
X40616655Y-35240000D01*
X40730729Y-35813489D01*
X41055585Y-36299670D01*
X41370366Y-36510000D01*
X41055585Y-36720330D01*
X40730729Y-37206511D01*
X40616655Y-37780000D01*
X40730729Y-38353489D01*
X41055585Y-38839670D01*
X41370366Y-39050000D01*
X41055585Y-39260330D01*
X40730729Y-39746511D01*
X40616655Y-40320000D01*
X40730729Y-40893489D01*
X41055585Y-41379670D01*
X41370366Y-41590000D01*
X41055585Y-41800330D01*
X40730729Y-42286511D01*
X40616655Y-42860000D01*
X40730729Y-43433489D01*
X41055585Y-43919670D01*
X41370366Y-44130000D01*
X41055585Y-44340330D01*
X40730729Y-44826511D01*
X40616655Y-45400000D01*
X40730729Y-45973489D01*
X41055585Y-46459670D01*
X41370366Y-46670000D01*
X41055585Y-46880330D01*
X40730729Y-47366511D01*
X40616655Y-47940000D01*
X40730729Y-48513489D01*
X41055585Y-48999670D01*
X41166828Y-49074000D01*
X34802741Y-49074000D01*
X28253100Y-48986671D01*
X28569271Y-48513489D01*
X28683345Y-47940000D01*
X28569271Y-47366511D01*
X28244415Y-46880330D01*
X27929634Y-46670000D01*
X28244415Y-46459670D01*
X28569271Y-45973489D01*
X28683345Y-45400000D01*
X28569271Y-44826511D01*
X28244415Y-44340330D01*
X27929634Y-44130000D01*
X28244415Y-43919670D01*
X28569271Y-43433489D01*
X28683345Y-42860000D01*
X28569271Y-42286511D01*
X28244415Y-41800330D01*
X27929634Y-41590000D01*
X28122326Y-41461247D01*
X31322838Y-41461247D01*
X31464883Y-41805023D01*
X31727673Y-42068272D01*
X32071201Y-42210918D01*
X32443167Y-42211242D01*
X32786943Y-42069197D01*
X33050192Y-41806407D01*
X33192838Y-41462879D01*
X33193162Y-41090913D01*
X33051117Y-40747137D01*
X32788327Y-40483888D01*
X32444799Y-40341242D01*
X32072833Y-40340918D01*
X31729057Y-40482963D01*
X31465808Y-40745753D01*
X31323162Y-41089281D01*
X31322838Y-41461247D01*
X28122326Y-41461247D01*
X28244415Y-41379670D01*
X28569271Y-40893489D01*
X28683345Y-40320000D01*
X28569271Y-39746511D01*
X28244415Y-39260330D01*
X27929634Y-39050000D01*
X28244415Y-38839670D01*
X28569271Y-38353489D01*
X28683345Y-37780000D01*
X28632258Y-37523167D01*
X34116838Y-37523167D01*
X34258883Y-37866943D01*
X34521673Y-38130192D01*
X34865201Y-38272838D01*
X35237167Y-38273162D01*
X35580943Y-38131117D01*
X35844192Y-37868327D01*
X35986838Y-37524799D01*
X35987162Y-37152833D01*
X35845117Y-36809057D01*
X35582327Y-36545808D01*
X35238799Y-36403162D01*
X34866833Y-36402838D01*
X34523057Y-36544883D01*
X34259808Y-36807673D01*
X34117162Y-37151201D01*
X34116838Y-37523167D01*
X28632258Y-37523167D01*
X28569271Y-37206511D01*
X28244415Y-36720330D01*
X27929634Y-36510000D01*
X28244415Y-36299670D01*
X28346992Y-36146152D01*
X28552673Y-36352192D01*
X28896201Y-36494838D01*
X29268167Y-36495162D01*
X29611943Y-36353117D01*
X29875192Y-36090327D01*
X29923825Y-35973206D01*
X30171042Y-35973206D01*
X30313087Y-36316982D01*
X30575877Y-36580231D01*
X30919405Y-36722877D01*
X31291371Y-36723201D01*
X31635147Y-36581156D01*
X31898396Y-36318366D01*
X32041042Y-35974838D01*
X32041366Y-35602872D01*
X31899321Y-35259096D01*
X31636531Y-34995847D01*
X31293003Y-34853201D01*
X30921037Y-34852877D01*
X30577261Y-34994922D01*
X30314012Y-35257712D01*
X30171366Y-35601240D01*
X30171042Y-35973206D01*
X29923825Y-35973206D01*
X30017838Y-35746799D01*
X30018162Y-35374833D01*
X29876117Y-35031057D01*
X29613327Y-34767808D01*
X29269799Y-34625162D01*
X28897833Y-34624838D01*
X28586564Y-34753451D01*
X28569271Y-34666511D01*
X28244415Y-34180330D01*
X27929634Y-33970000D01*
X28244415Y-33759670D01*
X28569271Y-33273489D01*
X28683345Y-32700000D01*
X28569271Y-32126511D01*
X28244415Y-31640330D01*
X27929634Y-31430000D01*
X28244415Y-31219670D01*
X28569271Y-30733489D01*
X28683345Y-30160000D01*
X28569271Y-29586511D01*
X28441419Y-29395167D01*
X30560838Y-29395167D01*
X30702883Y-29738943D01*
X30965673Y-30002192D01*
X31309201Y-30144838D01*
X31489892Y-30144995D01*
X31727673Y-30383192D01*
X32071201Y-30525838D01*
X32443167Y-30526162D01*
X32786943Y-30384117D01*
X33050192Y-30121327D01*
X33192838Y-29777799D01*
X33193162Y-29405833D01*
X33051117Y-29062057D01*
X32788327Y-28798808D01*
X32444799Y-28656162D01*
X32264108Y-28656005D01*
X32026327Y-28417808D01*
X31682799Y-28275162D01*
X31310833Y-28274838D01*
X30967057Y-28416883D01*
X30703808Y-28679673D01*
X30561162Y-29023201D01*
X30560838Y-29395167D01*
X28441419Y-29395167D01*
X28244415Y-29100330D01*
X27929634Y-28890000D01*
X28244415Y-28679670D01*
X28569271Y-28193489D01*
X28683345Y-27620000D01*
X28569271Y-27046511D01*
X28244415Y-26560330D01*
X27929634Y-26350000D01*
X28244415Y-26139670D01*
X28393755Y-25916167D01*
X33481838Y-25916167D01*
X33623883Y-26259943D01*
X33886673Y-26523192D01*
X34230201Y-26665838D01*
X34602167Y-26666162D01*
X34945943Y-26524117D01*
X35209192Y-26261327D01*
X35351838Y-25917799D01*
X35352162Y-25545833D01*
X35210117Y-25202057D01*
X34947327Y-24938808D01*
X34603799Y-24796162D01*
X34231833Y-24795838D01*
X33888057Y-24937883D01*
X33624808Y-25200673D01*
X33482162Y-25544201D01*
X33481838Y-25916167D01*
X28393755Y-25916167D01*
X28569271Y-25653489D01*
X28683345Y-25080000D01*
X28569271Y-24506511D01*
X28356561Y-24188167D01*
X36910838Y-24188167D01*
X37052883Y-24531943D01*
X37315673Y-24795192D01*
X37659201Y-24937838D01*
X38031167Y-24938162D01*
X38374943Y-24796117D01*
X38638192Y-24533327D01*
X38780838Y-24189799D01*
X38781162Y-23817833D01*
X38639117Y-23474057D01*
X38376327Y-23210808D01*
X38032799Y-23068162D01*
X37660833Y-23067838D01*
X37317057Y-23209883D01*
X37053808Y-23472673D01*
X36911162Y-23816201D01*
X36910838Y-24188167D01*
X28356561Y-24188167D01*
X28244415Y-24020330D01*
X27929634Y-23810000D01*
X28244415Y-23599670D01*
X28569271Y-23113489D01*
X28683345Y-22540000D01*
X28569271Y-21966511D01*
X28244415Y-21480330D01*
X28222220Y-21465500D01*
X28375698Y-21401927D01*
X28554327Y-21223299D01*
X28651000Y-20989910D01*
X28651000Y-20886167D01*
X37164838Y-20886167D01*
X37306883Y-21229943D01*
X37569673Y-21493192D01*
X37913201Y-21635838D01*
X38285167Y-21636162D01*
X38628943Y-21494117D01*
X38892192Y-21231327D01*
X39034838Y-20887799D01*
X39035162Y-20515833D01*
X38893117Y-20172057D01*
X38630327Y-19908808D01*
X38286799Y-19766162D01*
X37914833Y-19765838D01*
X37571057Y-19907883D01*
X37307808Y-20170673D01*
X37165162Y-20514201D01*
X37164838Y-20886167D01*
X28651000Y-20886167D01*
X28651000Y-20285750D01*
X28492250Y-20127000D01*
X27127000Y-20127000D01*
X27127000Y-20147000D01*
X26873000Y-20147000D01*
X26873000Y-20127000D01*
X26853000Y-20127000D01*
X26853000Y-19873000D01*
X26873000Y-19873000D01*
X26873000Y-19853000D01*
X27127000Y-19853000D01*
X27127000Y-19873000D01*
X28492250Y-19873000D01*
X28651000Y-19714250D01*
X28651000Y-19010090D01*
X28554327Y-18776701D01*
X28375698Y-18598073D01*
X28240326Y-18542000D01*
X41059674Y-18542000D01*
X40924302Y-18598073D01*
X40924302Y-18598073D01*
G37*
X40924302Y-18598073D02*
X40745673Y-18776701D01*
X40649000Y-19010090D01*
X40649000Y-19714250D01*
X40807750Y-19873000D01*
X42173000Y-19873000D01*
X42173000Y-19853000D01*
X42427000Y-19853000D01*
X42427000Y-19873000D01*
X42447000Y-19873000D01*
X42447000Y-20127000D01*
X42427000Y-20127000D01*
X42427000Y-20147000D01*
X42173000Y-20147000D01*
X42173000Y-20127000D01*
X40807750Y-20127000D01*
X40649000Y-20285750D01*
X40649000Y-20989910D01*
X40745673Y-21223299D01*
X40924302Y-21401927D01*
X41077780Y-21465500D01*
X41055585Y-21480330D01*
X40730729Y-21966511D01*
X40616655Y-22540000D01*
X40730729Y-23113489D01*
X41055585Y-23599670D01*
X41370366Y-23810000D01*
X41055585Y-24020330D01*
X40730729Y-24506511D01*
X40616655Y-25080000D01*
X40730729Y-25653489D01*
X41055585Y-26139670D01*
X41370366Y-26350000D01*
X41055585Y-26560330D01*
X40730729Y-27046511D01*
X40616655Y-27620000D01*
X40730729Y-28193489D01*
X41055585Y-28679670D01*
X41370366Y-28890000D01*
X41055585Y-29100330D01*
X40730729Y-29586511D01*
X40616655Y-30160000D01*
X40730729Y-30733489D01*
X41055585Y-31219670D01*
X41370366Y-31430000D01*
X41055585Y-31640330D01*
X40730729Y-32126511D01*
X40616655Y-32700000D01*
X40730729Y-33273489D01*
X41055585Y-33759670D01*
X41370366Y-33970000D01*
X41055585Y-34180330D01*
X40730729Y-34666511D01*
X40616655Y-35240000D01*
X40730729Y-35813489D01*
X41055585Y-36299670D01*
X41370366Y-36510000D01*
X41055585Y-36720330D01*
X40730729Y-37206511D01*
X40616655Y-37780000D01*
X40730729Y-38353489D01*
X41055585Y-38839670D01*
X41370366Y-39050000D01*
X41055585Y-39260330D01*
X40730729Y-39746511D01*
X40616655Y-40320000D01*
X40730729Y-40893489D01*
X41055585Y-41379670D01*
X41370366Y-41590000D01*
X41055585Y-41800330D01*
X40730729Y-42286511D01*
X40616655Y-42860000D01*
X40730729Y-43433489D01*
X41055585Y-43919670D01*
X41370366Y-44130000D01*
X41055585Y-44340330D01*
X40730729Y-44826511D01*
X40616655Y-45400000D01*
X40730729Y-45973489D01*
X41055585Y-46459670D01*
X41370366Y-46670000D01*
X41055585Y-46880330D01*
X40730729Y-47366511D01*
X40616655Y-47940000D01*
X40730729Y-48513489D01*
X41055585Y-48999670D01*
X41166828Y-49074000D01*
X34802741Y-49074000D01*
X28253100Y-48986671D01*
X28569271Y-48513489D01*
X28683345Y-47940000D01*
X28569271Y-47366511D01*
X28244415Y-46880330D01*
X27929634Y-46670000D01*
X28244415Y-46459670D01*
X28569271Y-45973489D01*
X28683345Y-45400000D01*
X28569271Y-44826511D01*
X28244415Y-44340330D01*
X27929634Y-44130000D01*
X28244415Y-43919670D01*
X28569271Y-43433489D01*
X28683345Y-42860000D01*
X28569271Y-42286511D01*
X28244415Y-41800330D01*
X27929634Y-41590000D01*
X28122326Y-41461247D01*
X31322838Y-41461247D01*
X31464883Y-41805023D01*
X31727673Y-42068272D01*
X32071201Y-42210918D01*
X32443167Y-42211242D01*
X32786943Y-42069197D01*
X33050192Y-41806407D01*
X33192838Y-41462879D01*
X33193162Y-41090913D01*
X33051117Y-40747137D01*
X32788327Y-40483888D01*
X32444799Y-40341242D01*
X32072833Y-40340918D01*
X31729057Y-40482963D01*
X31465808Y-40745753D01*
X31323162Y-41089281D01*
X31322838Y-41461247D01*
X28122326Y-41461247D01*
X28244415Y-41379670D01*
X28569271Y-40893489D01*
X28683345Y-40320000D01*
X28569271Y-39746511D01*
X28244415Y-39260330D01*
X27929634Y-39050000D01*
X28244415Y-38839670D01*
X28569271Y-38353489D01*
X28683345Y-37780000D01*
X28632258Y-37523167D01*
X34116838Y-37523167D01*
X34258883Y-37866943D01*
X34521673Y-38130192D01*
X34865201Y-38272838D01*
X35237167Y-38273162D01*
X35580943Y-38131117D01*
X35844192Y-37868327D01*
X35986838Y-37524799D01*
X35987162Y-37152833D01*
X35845117Y-36809057D01*
X35582327Y-36545808D01*
X35238799Y-36403162D01*
X34866833Y-36402838D01*
X34523057Y-36544883D01*
X34259808Y-36807673D01*
X34117162Y-37151201D01*
X34116838Y-37523167D01*
X28632258Y-37523167D01*
X28569271Y-37206511D01*
X28244415Y-36720330D01*
X27929634Y-36510000D01*
X28244415Y-36299670D01*
X28346992Y-36146152D01*
X28552673Y-36352192D01*
X28896201Y-36494838D01*
X29268167Y-36495162D01*
X29611943Y-36353117D01*
X29875192Y-36090327D01*
X29923825Y-35973206D01*
X30171042Y-35973206D01*
X30313087Y-36316982D01*
X30575877Y-36580231D01*
X30919405Y-36722877D01*
X31291371Y-36723201D01*
X31635147Y-36581156D01*
X31898396Y-36318366D01*
X32041042Y-35974838D01*
X32041366Y-35602872D01*
X31899321Y-35259096D01*
X31636531Y-34995847D01*
X31293003Y-34853201D01*
X30921037Y-34852877D01*
X30577261Y-34994922D01*
X30314012Y-35257712D01*
X30171366Y-35601240D01*
X30171042Y-35973206D01*
X29923825Y-35973206D01*
X30017838Y-35746799D01*
X30018162Y-35374833D01*
X29876117Y-35031057D01*
X29613327Y-34767808D01*
X29269799Y-34625162D01*
X28897833Y-34624838D01*
X28586564Y-34753451D01*
X28569271Y-34666511D01*
X28244415Y-34180330D01*
X27929634Y-33970000D01*
X28244415Y-33759670D01*
X28569271Y-33273489D01*
X28683345Y-32700000D01*
X28569271Y-32126511D01*
X28244415Y-31640330D01*
X27929634Y-31430000D01*
X28244415Y-31219670D01*
X28569271Y-30733489D01*
X28683345Y-30160000D01*
X28569271Y-29586511D01*
X28441419Y-29395167D01*
X30560838Y-29395167D01*
X30702883Y-29738943D01*
X30965673Y-30002192D01*
X31309201Y-30144838D01*
X31489892Y-30144995D01*
X31727673Y-30383192D01*
X32071201Y-30525838D01*
X32443167Y-30526162D01*
X32786943Y-30384117D01*
X33050192Y-30121327D01*
X33192838Y-29777799D01*
X33193162Y-29405833D01*
X33051117Y-29062057D01*
X32788327Y-28798808D01*
X32444799Y-28656162D01*
X32264108Y-28656005D01*
X32026327Y-28417808D01*
X31682799Y-28275162D01*
X31310833Y-28274838D01*
X30967057Y-28416883D01*
X30703808Y-28679673D01*
X30561162Y-29023201D01*
X30560838Y-29395167D01*
X28441419Y-29395167D01*
X28244415Y-29100330D01*
X27929634Y-28890000D01*
X28244415Y-28679670D01*
X28569271Y-28193489D01*
X28683345Y-27620000D01*
X28569271Y-27046511D01*
X28244415Y-26560330D01*
X27929634Y-26350000D01*
X28244415Y-26139670D01*
X28393755Y-25916167D01*
X33481838Y-25916167D01*
X33623883Y-26259943D01*
X33886673Y-26523192D01*
X34230201Y-26665838D01*
X34602167Y-26666162D01*
X34945943Y-26524117D01*
X35209192Y-26261327D01*
X35351838Y-25917799D01*
X35352162Y-25545833D01*
X35210117Y-25202057D01*
X34947327Y-24938808D01*
X34603799Y-24796162D01*
X34231833Y-24795838D01*
X33888057Y-24937883D01*
X33624808Y-25200673D01*
X33482162Y-25544201D01*
X33481838Y-25916167D01*
X28393755Y-25916167D01*
X28569271Y-25653489D01*
X28683345Y-25080000D01*
X28569271Y-24506511D01*
X28356561Y-24188167D01*
X36910838Y-24188167D01*
X37052883Y-24531943D01*
X37315673Y-24795192D01*
X37659201Y-24937838D01*
X38031167Y-24938162D01*
X38374943Y-24796117D01*
X38638192Y-24533327D01*
X38780838Y-24189799D01*
X38781162Y-23817833D01*
X38639117Y-23474057D01*
X38376327Y-23210808D01*
X38032799Y-23068162D01*
X37660833Y-23067838D01*
X37317057Y-23209883D01*
X37053808Y-23472673D01*
X36911162Y-23816201D01*
X36910838Y-24188167D01*
X28356561Y-24188167D01*
X28244415Y-24020330D01*
X27929634Y-23810000D01*
X28244415Y-23599670D01*
X28569271Y-23113489D01*
X28683345Y-22540000D01*
X28569271Y-21966511D01*
X28244415Y-21480330D01*
X28222220Y-21465500D01*
X28375698Y-21401927D01*
X28554327Y-21223299D01*
X28651000Y-20989910D01*
X28651000Y-20886167D01*
X37164838Y-20886167D01*
X37306883Y-21229943D01*
X37569673Y-21493192D01*
X37913201Y-21635838D01*
X38285167Y-21636162D01*
X38628943Y-21494117D01*
X38892192Y-21231327D01*
X39034838Y-20887799D01*
X39035162Y-20515833D01*
X38893117Y-20172057D01*
X38630327Y-19908808D01*
X38286799Y-19766162D01*
X37914833Y-19765838D01*
X37571057Y-19907883D01*
X37307808Y-20170673D01*
X37165162Y-20514201D01*
X37164838Y-20886167D01*
X28651000Y-20886167D01*
X28651000Y-20285750D01*
X28492250Y-20127000D01*
X27127000Y-20127000D01*
X27127000Y-20147000D01*
X26873000Y-20147000D01*
X26873000Y-20127000D01*
X26853000Y-20127000D01*
X26853000Y-19873000D01*
X26873000Y-19873000D01*
X26873000Y-19853000D01*
X27127000Y-19853000D01*
X27127000Y-19873000D01*
X28492250Y-19873000D01*
X28651000Y-19714250D01*
X28651000Y-19010090D01*
X28554327Y-18776701D01*
X28375698Y-18598073D01*
X28240326Y-18542000D01*
X41059674Y-18542000D01*
X40924302Y-18598073D01*
M02*
