M48
;DRILL file {KiCad 4.0.2-stable} date 8/15/2016 9:27:53 PM
;FORMAT={-:-/ absolute / inch / decimal}
FMAT,2
INCH,TZ
T1C0.016
T2C0.040
%
G90
G05
M72
T1
X1.145Y-1.4
X1.165Y-1.285
X1.17Y-1.455
X1.2247Y-1.409
X1.24Y-1.15
X1.27Y-1.165
X1.27Y-1.625
X1.27Y-1.9149
X1.275Y-0.825
X1.34Y-0.86
X1.355Y-1.013
X1.355Y-1.795
X1.38Y-1.47
X1.4199Y-1.07
X1.4199Y-1.17
X1.46Y-0.915
X1.49Y-0.945
X1.4949Y-1.905
X1.5Y-0.815
X1.5672Y-1.31
T2
X1.063Y-0.7874
X1.063Y-0.8874
X1.063Y-0.9874
X1.063Y-1.0874
X1.063Y-1.1874
X1.063Y-1.2874
X1.063Y-1.3874
X1.063Y-1.4874
X1.063Y-1.5874
X1.063Y-1.6874
X1.063Y-1.7874
X1.063Y-1.8874
X1.6654Y-0.7874
X1.6654Y-0.8874
X1.6654Y-0.9874
X1.6654Y-1.0874
X1.6654Y-1.1874
X1.6654Y-1.2874
X1.6654Y-1.3874
X1.6654Y-1.4874
X1.6654Y-1.5874
X1.6654Y-1.6874
X1.6654Y-1.7874
X1.6654Y-1.8874
T0
M30
