G04 #@! TF.FileFunction,Copper,L4,Bot,Signal*
%FSLAX46Y46*%
G04 Gerber Fmt 4.6, Leading zero omitted, Abs format (unit mm)*
G04 Created by KiCad (PCBNEW 4.0.2-stable) date 8/15/2016 9:27:46 PM*
%MOMM*%
G01*
G04 APERTURE LIST*
%ADD10C,0.100000*%
%ADD11R,0.750000X0.800000*%
%ADD12R,0.800000X0.750000*%
%ADD13R,2.032000X1.727200*%
%ADD14O,2.032000X1.727200*%
%ADD15R,0.500000X0.900000*%
%ADD16R,1.060000X0.650000*%
%ADD17R,1.900000X1.100000*%
%ADD18C,0.600000*%
%ADD19C,0.350000*%
%ADD20C,0.250000*%
%ADD21C,0.254000*%
G04 APERTURE END LIST*
D10*
D11*
X31242000Y-46748000D03*
X31242000Y-48248000D03*
X37719000Y-45986000D03*
X37719000Y-47486000D03*
D12*
X32778000Y-22987000D03*
X34278000Y-22987000D03*
D11*
X30099000Y-34810000D03*
X30099000Y-36310000D03*
X37084000Y-22340000D03*
X37084000Y-20840000D03*
X29337000Y-22975000D03*
X29337000Y-21475000D03*
X31115000Y-22975000D03*
X31115000Y-21475000D03*
D12*
X35802000Y-30607000D03*
X34302000Y-30607000D03*
X35802000Y-28067000D03*
X34302000Y-28067000D03*
D11*
X31877000Y-36310000D03*
X31877000Y-34810000D03*
D12*
X35294000Y-34798000D03*
X33794000Y-34798000D03*
D13*
X27000000Y-20000000D03*
D14*
X27000000Y-22540000D03*
X27000000Y-25080000D03*
X27000000Y-27620000D03*
X27000000Y-30160000D03*
X27000000Y-32700000D03*
X27000000Y-35240000D03*
X27000000Y-37780000D03*
X27000000Y-40320000D03*
X27000000Y-42860000D03*
X27000000Y-45400000D03*
X27000000Y-47940000D03*
D13*
X42300000Y-20000000D03*
D14*
X42300000Y-22540000D03*
X42300000Y-25080000D03*
X42300000Y-27620000D03*
X42300000Y-30160000D03*
X42300000Y-32700000D03*
X42300000Y-35240000D03*
X42300000Y-37780000D03*
X42300000Y-40320000D03*
X42300000Y-42860000D03*
X42300000Y-45400000D03*
X42300000Y-47940000D03*
D15*
X34151000Y-24765000D03*
X32651000Y-24765000D03*
X38608000Y-22352000D03*
X40108000Y-22352000D03*
D16*
X33444000Y-46416000D03*
X33444000Y-45466000D03*
X33444000Y-44516000D03*
X35644000Y-44516000D03*
X35644000Y-46416000D03*
D17*
X32131000Y-28107000D03*
X32131000Y-30607000D03*
D18*
X39808011Y-33274000D03*
X29591000Y-32639000D03*
X29718000Y-36957000D03*
X37084000Y-23241000D03*
X34036000Y-21844000D03*
X32385000Y-20955000D03*
X36066000Y-29718000D03*
X36066000Y-27178000D03*
X32258000Y-48639000D03*
X37970000Y-48387000D03*
X34417000Y-45593000D03*
X29083000Y-35560000D03*
X34417000Y-25731000D03*
X32258000Y-41276080D03*
X38100000Y-20701000D03*
X32258000Y-29591000D03*
X31496000Y-29210000D03*
X31106204Y-35788039D03*
X37846000Y-24003000D03*
X35052000Y-37338000D03*
D19*
X33444000Y-44516000D02*
X32564000Y-44516000D01*
X32564000Y-44516000D02*
X31574000Y-45506000D01*
X31574000Y-45506000D02*
X31574000Y-46416000D01*
X33444000Y-46416000D02*
X31574000Y-46416000D01*
X31574000Y-46416000D02*
X31242000Y-46748000D01*
X28895000Y-47940000D02*
X30087000Y-46748000D01*
X30087000Y-46748000D02*
X31242000Y-46748000D01*
X27000000Y-47940000D02*
X28895000Y-47940000D01*
D20*
X30099000Y-36576000D02*
X29718000Y-36957000D01*
X30099000Y-36310000D02*
X30099000Y-36576000D01*
X37084000Y-22340000D02*
X37084000Y-23241000D01*
X34036000Y-22120000D02*
X34036000Y-21844000D01*
X34278000Y-22987000D02*
X34278000Y-22362000D01*
X34278000Y-22362000D02*
X34036000Y-22120000D01*
X31115000Y-21475000D02*
X31865000Y-21475000D01*
X31865000Y-21475000D02*
X32385000Y-20955000D01*
X31115000Y-21475000D02*
X29337000Y-21475000D01*
X38608000Y-22352000D02*
X37096000Y-22352000D01*
X37096000Y-22352000D02*
X37084000Y-22340000D01*
X35802000Y-30607000D02*
X35802000Y-29982000D01*
X35802000Y-29982000D02*
X36066000Y-29718000D01*
X35802000Y-28067000D02*
X35802000Y-27442000D01*
X35802000Y-27442000D02*
X36066000Y-27178000D01*
X31242000Y-48248000D02*
X31867000Y-48248000D01*
X31867000Y-48248000D02*
X32258000Y-48639000D01*
X37719000Y-47486000D02*
X37719000Y-48136000D01*
X37719000Y-48136000D02*
X37970000Y-48387000D01*
X34290000Y-45466000D02*
X34417000Y-45593000D01*
X33444000Y-45466000D02*
X34290000Y-45466000D01*
X37719000Y-45986000D02*
X40193600Y-45986000D01*
X40193600Y-45986000D02*
X42147600Y-47940000D01*
X42147600Y-47940000D02*
X42300000Y-47940000D01*
X29083000Y-35201000D02*
X29083000Y-35560000D01*
X30099000Y-34810000D02*
X29474000Y-34810000D01*
X29474000Y-34810000D02*
X29083000Y-35201000D01*
X34151000Y-24765000D02*
X34151000Y-25465000D01*
X34151000Y-25465000D02*
X34417000Y-25731000D01*
X37719000Y-45986000D02*
X36074000Y-45986000D01*
X36074000Y-45986000D02*
X35644000Y-46416000D01*
X35294000Y-34798000D02*
X35294000Y-34173000D01*
X35294000Y-34173000D02*
X34268000Y-33147000D01*
X34268000Y-33147000D02*
X31496000Y-33147000D01*
X31496000Y-33147000D02*
X29337000Y-30988000D01*
X29337000Y-30988000D02*
X29337000Y-22975000D01*
X32778000Y-22987000D02*
X32778000Y-24638000D01*
X32778000Y-24638000D02*
X32651000Y-24765000D01*
X29337000Y-22975000D02*
X27435000Y-22975000D01*
X27435000Y-22975000D02*
X27000000Y-22540000D01*
X31115000Y-22975000D02*
X29337000Y-22975000D01*
X32778000Y-22987000D02*
X31127000Y-22987000D01*
X31127000Y-22987000D02*
X31115000Y-22975000D01*
X37848000Y-20701000D02*
X38100000Y-20701000D01*
X37084000Y-20840000D02*
X37709000Y-20840000D01*
X37709000Y-20840000D02*
X37848000Y-20701000D01*
X34302000Y-30607000D02*
X32131000Y-30607000D01*
X32258000Y-29591000D02*
X32258000Y-30480000D01*
X32258000Y-30480000D02*
X32131000Y-30607000D01*
X34302000Y-28067000D02*
X32171000Y-28067000D01*
X32171000Y-28067000D02*
X32131000Y-28107000D01*
X31496000Y-29210000D02*
X31496000Y-28742000D01*
X31496000Y-28742000D02*
X32131000Y-28107000D01*
X31106204Y-35788039D02*
X31355039Y-35788039D01*
X31355039Y-35788039D02*
X31877000Y-36310000D01*
X33794000Y-34798000D02*
X31889000Y-34798000D01*
X31889000Y-34798000D02*
X31877000Y-34810000D01*
X42300000Y-22540000D02*
X40296000Y-22540000D01*
X40296000Y-22540000D02*
X40108000Y-22352000D01*
X39183001Y-25340001D02*
X37846000Y-24003000D01*
X38989000Y-35687000D02*
X39183001Y-35492999D01*
X39183001Y-35492999D02*
X39183001Y-25340001D01*
X37637999Y-37038001D02*
X38989000Y-35687000D01*
X35052000Y-37338000D02*
X35351999Y-37038001D01*
X35351999Y-37038001D02*
X37637999Y-37038001D01*
D21*
G36*
X40692334Y-47559536D02*
X40616655Y-47940000D01*
X40730729Y-48513489D01*
X41055585Y-48999670D01*
X41166828Y-49074000D01*
X34802741Y-49074000D01*
X32124732Y-49038293D01*
X32155327Y-49007698D01*
X32252000Y-48774309D01*
X32252000Y-48533750D01*
X32093250Y-48375000D01*
X31369000Y-48375000D01*
X31369000Y-48395000D01*
X31115000Y-48395000D01*
X31115000Y-48375000D01*
X30390750Y-48375000D01*
X30232000Y-48533750D01*
X30232000Y-48774309D01*
X30328673Y-49007698D01*
X30335411Y-49014436D01*
X28253100Y-48986671D01*
X28411239Y-48750000D01*
X28895000Y-48750000D01*
X29204974Y-48688342D01*
X29467756Y-48512756D01*
X30232000Y-47748513D01*
X30232000Y-47962250D01*
X30390750Y-48121000D01*
X31115000Y-48121000D01*
X31115000Y-48101000D01*
X31369000Y-48101000D01*
X31369000Y-48121000D01*
X32093250Y-48121000D01*
X32252000Y-47962250D01*
X32252000Y-47771750D01*
X36709000Y-47771750D01*
X36709000Y-48012309D01*
X36805673Y-48245698D01*
X36984301Y-48424327D01*
X37217690Y-48521000D01*
X37433250Y-48521000D01*
X37592000Y-48362250D01*
X37592000Y-47613000D01*
X37846000Y-47613000D01*
X37846000Y-48362250D01*
X38004750Y-48521000D01*
X38220310Y-48521000D01*
X38453699Y-48424327D01*
X38632327Y-48245698D01*
X38729000Y-48012309D01*
X38729000Y-47771750D01*
X38570250Y-47613000D01*
X37846000Y-47613000D01*
X37592000Y-47613000D01*
X36867750Y-47613000D01*
X36709000Y-47771750D01*
X32252000Y-47771750D01*
X32252000Y-47721691D01*
X32155327Y-47488302D01*
X32153957Y-47486932D01*
X32213431Y-47399890D01*
X32248645Y-47226000D01*
X32499025Y-47226000D01*
X32662110Y-47337431D01*
X32914000Y-47388440D01*
X33974000Y-47388440D01*
X34209317Y-47344162D01*
X34425441Y-47205090D01*
X34545233Y-47029768D01*
X34649910Y-47192441D01*
X34862110Y-47337431D01*
X35114000Y-47388440D01*
X36174000Y-47388440D01*
X36409317Y-47344162D01*
X36625441Y-47205090D01*
X36709000Y-47082797D01*
X36709000Y-47200250D01*
X36867750Y-47359000D01*
X37592000Y-47359000D01*
X37592000Y-47339000D01*
X37846000Y-47339000D01*
X37846000Y-47359000D01*
X38570250Y-47359000D01*
X38729000Y-47200250D01*
X38729000Y-46959691D01*
X38640486Y-46746000D01*
X39878798Y-46746000D01*
X40692334Y-47559536D01*
X40692334Y-47559536D01*
G37*
X40692334Y-47559536D02*
X40616655Y-47940000D01*
X40730729Y-48513489D01*
X41055585Y-48999670D01*
X41166828Y-49074000D01*
X34802741Y-49074000D01*
X32124732Y-49038293D01*
X32155327Y-49007698D01*
X32252000Y-48774309D01*
X32252000Y-48533750D01*
X32093250Y-48375000D01*
X31369000Y-48375000D01*
X31369000Y-48395000D01*
X31115000Y-48395000D01*
X31115000Y-48375000D01*
X30390750Y-48375000D01*
X30232000Y-48533750D01*
X30232000Y-48774309D01*
X30328673Y-49007698D01*
X30335411Y-49014436D01*
X28253100Y-48986671D01*
X28411239Y-48750000D01*
X28895000Y-48750000D01*
X29204974Y-48688342D01*
X29467756Y-48512756D01*
X30232000Y-47748513D01*
X30232000Y-47962250D01*
X30390750Y-48121000D01*
X31115000Y-48121000D01*
X31115000Y-48101000D01*
X31369000Y-48101000D01*
X31369000Y-48121000D01*
X32093250Y-48121000D01*
X32252000Y-47962250D01*
X32252000Y-47771750D01*
X36709000Y-47771750D01*
X36709000Y-48012309D01*
X36805673Y-48245698D01*
X36984301Y-48424327D01*
X37217690Y-48521000D01*
X37433250Y-48521000D01*
X37592000Y-48362250D01*
X37592000Y-47613000D01*
X37846000Y-47613000D01*
X37846000Y-48362250D01*
X38004750Y-48521000D01*
X38220310Y-48521000D01*
X38453699Y-48424327D01*
X38632327Y-48245698D01*
X38729000Y-48012309D01*
X38729000Y-47771750D01*
X38570250Y-47613000D01*
X37846000Y-47613000D01*
X37592000Y-47613000D01*
X36867750Y-47613000D01*
X36709000Y-47771750D01*
X32252000Y-47771750D01*
X32252000Y-47721691D01*
X32155327Y-47488302D01*
X32153957Y-47486932D01*
X32213431Y-47399890D01*
X32248645Y-47226000D01*
X32499025Y-47226000D01*
X32662110Y-47337431D01*
X32914000Y-47388440D01*
X33974000Y-47388440D01*
X34209317Y-47344162D01*
X34425441Y-47205090D01*
X34545233Y-47029768D01*
X34649910Y-47192441D01*
X34862110Y-47337431D01*
X35114000Y-47388440D01*
X36174000Y-47388440D01*
X36409317Y-47344162D01*
X36625441Y-47205090D01*
X36709000Y-47082797D01*
X36709000Y-47200250D01*
X36867750Y-47359000D01*
X37592000Y-47359000D01*
X37592000Y-47339000D01*
X37846000Y-47339000D01*
X37846000Y-47359000D01*
X38570250Y-47359000D01*
X38729000Y-47200250D01*
X38729000Y-46959691D01*
X38640486Y-46746000D01*
X39878798Y-46746000D01*
X40692334Y-47559536D01*
G36*
X40924302Y-18598073D02*
X40745673Y-18776701D01*
X40649000Y-19010090D01*
X40649000Y-19714250D01*
X40807750Y-19873000D01*
X42173000Y-19873000D01*
X42173000Y-19853000D01*
X42427000Y-19853000D01*
X42427000Y-19873000D01*
X42447000Y-19873000D01*
X42447000Y-20127000D01*
X42427000Y-20127000D01*
X42427000Y-20147000D01*
X42173000Y-20147000D01*
X42173000Y-20127000D01*
X40807750Y-20127000D01*
X40649000Y-20285750D01*
X40649000Y-20989910D01*
X40745673Y-21223299D01*
X40924302Y-21401927D01*
X41077780Y-21465500D01*
X41055585Y-21480330D01*
X40946398Y-21643739D01*
X40822090Y-21450559D01*
X40609890Y-21305569D01*
X40358000Y-21254560D01*
X39858000Y-21254560D01*
X39622683Y-21298838D01*
X39406559Y-21437910D01*
X39360031Y-21506006D01*
X39217698Y-21363673D01*
X38984309Y-21267000D01*
X38891750Y-21267000D01*
X38735002Y-21423748D01*
X38735002Y-21388243D01*
X38892192Y-21231327D01*
X39034838Y-20887799D01*
X39035162Y-20515833D01*
X38893117Y-20172057D01*
X38630327Y-19908808D01*
X38286799Y-19766162D01*
X37914833Y-19765838D01*
X37716851Y-19847642D01*
X37710890Y-19843569D01*
X37459000Y-19792560D01*
X36709000Y-19792560D01*
X36473683Y-19836838D01*
X36257559Y-19975910D01*
X36112569Y-20188110D01*
X36061560Y-20440000D01*
X36061560Y-21240000D01*
X36105838Y-21475317D01*
X36172329Y-21578646D01*
X36170673Y-21580302D01*
X36074000Y-21813691D01*
X36074000Y-22054250D01*
X36232750Y-22213000D01*
X36957000Y-22213000D01*
X36957000Y-22193000D01*
X37211000Y-22193000D01*
X37211000Y-22213000D01*
X37869750Y-22213000D01*
X37881750Y-22225000D01*
X38483000Y-22225000D01*
X38483000Y-22205000D01*
X38733000Y-22205000D01*
X38733000Y-22225000D01*
X38755000Y-22225000D01*
X38755000Y-22479000D01*
X38733000Y-22479000D01*
X38733000Y-23278250D01*
X38891750Y-23437000D01*
X38984309Y-23437000D01*
X39217698Y-23340327D01*
X39358936Y-23199090D01*
X39393910Y-23253441D01*
X39606110Y-23398431D01*
X39858000Y-23449440D01*
X40358000Y-23449440D01*
X40593317Y-23405162D01*
X40756743Y-23300000D01*
X40855352Y-23300000D01*
X41055585Y-23599670D01*
X41370366Y-23810000D01*
X41055585Y-24020330D01*
X40730729Y-24506511D01*
X40616655Y-25080000D01*
X40730729Y-25653489D01*
X41055585Y-26139670D01*
X41370366Y-26350000D01*
X41055585Y-26560330D01*
X40730729Y-27046511D01*
X40616655Y-27620000D01*
X40730729Y-28193489D01*
X41055585Y-28679670D01*
X41370366Y-28890000D01*
X41055585Y-29100330D01*
X40730729Y-29586511D01*
X40616655Y-30160000D01*
X40730729Y-30733489D01*
X41055585Y-31219670D01*
X41370366Y-31430000D01*
X41055585Y-31640330D01*
X40730729Y-32126511D01*
X40616655Y-32700000D01*
X40730729Y-33273489D01*
X41055585Y-33759670D01*
X41370366Y-33970000D01*
X41055585Y-34180330D01*
X40730729Y-34666511D01*
X40616655Y-35240000D01*
X40730729Y-35813489D01*
X41055585Y-36299670D01*
X41370366Y-36510000D01*
X41055585Y-36720330D01*
X40730729Y-37206511D01*
X40616655Y-37780000D01*
X40730729Y-38353489D01*
X41055585Y-38839670D01*
X41370366Y-39050000D01*
X41055585Y-39260330D01*
X40730729Y-39746511D01*
X40616655Y-40320000D01*
X40730729Y-40893489D01*
X41055585Y-41379670D01*
X41370366Y-41590000D01*
X41055585Y-41800330D01*
X40730729Y-42286511D01*
X40616655Y-42860000D01*
X40730729Y-43433489D01*
X41055585Y-43919670D01*
X41370366Y-44130000D01*
X41055585Y-44340330D01*
X40730729Y-44826511D01*
X40621537Y-45375458D01*
X40484439Y-45283852D01*
X40193600Y-45226000D01*
X38616931Y-45226000D01*
X38558090Y-45134559D01*
X38345890Y-44989569D01*
X38094000Y-44938560D01*
X37344000Y-44938560D01*
X37108683Y-44982838D01*
X36892559Y-45121910D01*
X36821437Y-45226000D01*
X36679481Y-45226000D01*
X36770431Y-45092890D01*
X36821440Y-44841000D01*
X36821440Y-44191000D01*
X36777162Y-43955683D01*
X36638090Y-43739559D01*
X36425890Y-43594569D01*
X36174000Y-43543560D01*
X35114000Y-43543560D01*
X34878683Y-43587838D01*
X34662559Y-43726910D01*
X34542767Y-43902232D01*
X34438090Y-43739559D01*
X34225890Y-43594569D01*
X33974000Y-43543560D01*
X32914000Y-43543560D01*
X32678683Y-43587838D01*
X32464206Y-43725850D01*
X32254026Y-43767658D01*
X32122635Y-43855451D01*
X31991243Y-43943244D01*
X31001244Y-44933244D01*
X30825658Y-45196026D01*
X30764000Y-45506000D01*
X30764000Y-45719941D01*
X30631683Y-45744838D01*
X30415559Y-45883910D01*
X30378601Y-45938000D01*
X30087000Y-45938000D01*
X29777027Y-45999657D01*
X29514244Y-46175243D01*
X28559488Y-47130000D01*
X28411239Y-47130000D01*
X28244415Y-46880330D01*
X27929634Y-46670000D01*
X28244415Y-46459670D01*
X28569271Y-45973489D01*
X28683345Y-45400000D01*
X28569271Y-44826511D01*
X28244415Y-44340330D01*
X27929634Y-44130000D01*
X28244415Y-43919670D01*
X28569271Y-43433489D01*
X28683345Y-42860000D01*
X28569271Y-42286511D01*
X28244415Y-41800330D01*
X27929634Y-41590000D01*
X28122326Y-41461247D01*
X31322838Y-41461247D01*
X31464883Y-41805023D01*
X31727673Y-42068272D01*
X32071201Y-42210918D01*
X32443167Y-42211242D01*
X32786943Y-42069197D01*
X33050192Y-41806407D01*
X33192838Y-41462879D01*
X33193162Y-41090913D01*
X33051117Y-40747137D01*
X32788327Y-40483888D01*
X32444799Y-40341242D01*
X32072833Y-40340918D01*
X31729057Y-40482963D01*
X31465808Y-40745753D01*
X31323162Y-41089281D01*
X31322838Y-41461247D01*
X28122326Y-41461247D01*
X28244415Y-41379670D01*
X28569271Y-40893489D01*
X28683345Y-40320000D01*
X28569271Y-39746511D01*
X28244415Y-39260330D01*
X27929634Y-39050000D01*
X28244415Y-38839670D01*
X28569271Y-38353489D01*
X28683345Y-37780000D01*
X28632258Y-37523167D01*
X34116838Y-37523167D01*
X34258883Y-37866943D01*
X34521673Y-38130192D01*
X34865201Y-38272838D01*
X35237167Y-38273162D01*
X35580943Y-38131117D01*
X35844192Y-37868327D01*
X35873394Y-37798001D01*
X37637999Y-37798001D01*
X37928838Y-37740149D01*
X38175400Y-37575402D01*
X39720402Y-36030400D01*
X39885149Y-35783838D01*
X39943001Y-35492999D01*
X39943001Y-25340001D01*
X39885149Y-25049162D01*
X39720402Y-24802600D01*
X38781122Y-23863320D01*
X38781162Y-23817833D01*
X38639117Y-23474057D01*
X38463309Y-23297941D01*
X38483000Y-23278250D01*
X38483000Y-22479000D01*
X37947250Y-22479000D01*
X37935250Y-22467000D01*
X37211000Y-22467000D01*
X37211000Y-23216250D01*
X37260796Y-23266046D01*
X37053808Y-23472673D01*
X36911162Y-23816201D01*
X36910838Y-24188167D01*
X37052883Y-24531943D01*
X37315673Y-24795192D01*
X37659201Y-24937838D01*
X37706077Y-24937879D01*
X38423001Y-25654803D01*
X38423001Y-35178197D01*
X37323197Y-36278001D01*
X35351999Y-36278001D01*
X35061160Y-36335853D01*
X34960787Y-36402920D01*
X34866833Y-36402838D01*
X34523057Y-36544883D01*
X34259808Y-36807673D01*
X34117162Y-37151201D01*
X34116838Y-37523167D01*
X28632258Y-37523167D01*
X28569271Y-37206511D01*
X28244415Y-36720330D01*
X27929634Y-36510000D01*
X28244415Y-36299670D01*
X28346992Y-36146152D01*
X28552673Y-36352192D01*
X28896201Y-36494838D01*
X29189656Y-36495094D01*
X29089000Y-36595750D01*
X29089000Y-36836309D01*
X29185673Y-37069698D01*
X29364301Y-37248327D01*
X29597690Y-37345000D01*
X29813250Y-37345000D01*
X29972000Y-37186250D01*
X29972000Y-36437000D01*
X29952000Y-36437000D01*
X29952000Y-36183000D01*
X29972000Y-36183000D01*
X29972000Y-36163000D01*
X30226000Y-36163000D01*
X30226000Y-36183000D01*
X30246000Y-36183000D01*
X30246000Y-36437000D01*
X30226000Y-36437000D01*
X30226000Y-37186250D01*
X30384750Y-37345000D01*
X30600310Y-37345000D01*
X30833699Y-37248327D01*
X30991973Y-37090052D01*
X31037910Y-37161441D01*
X31250110Y-37306431D01*
X31502000Y-37357440D01*
X32252000Y-37357440D01*
X32487317Y-37313162D01*
X32703441Y-37174090D01*
X32848431Y-36961890D01*
X32899440Y-36710000D01*
X32899440Y-35910000D01*
X32855162Y-35674683D01*
X32781380Y-35560022D01*
X32782762Y-35558000D01*
X32887156Y-35558000D01*
X32929910Y-35624441D01*
X33142110Y-35769431D01*
X33394000Y-35820440D01*
X34194000Y-35820440D01*
X34429317Y-35776162D01*
X34543978Y-35702380D01*
X34642110Y-35769431D01*
X34894000Y-35820440D01*
X35694000Y-35820440D01*
X35929317Y-35776162D01*
X36145441Y-35637090D01*
X36290431Y-35424890D01*
X36341440Y-35173000D01*
X36341440Y-34423000D01*
X36297162Y-34187683D01*
X36158090Y-33971559D01*
X35970018Y-33843055D01*
X35831401Y-33635599D01*
X34805401Y-32609599D01*
X34558839Y-32444852D01*
X34268000Y-32387000D01*
X31810802Y-32387000D01*
X31228242Y-31804440D01*
X33081000Y-31804440D01*
X33316317Y-31760162D01*
X33532441Y-31621090D01*
X33589762Y-31537197D01*
X33650110Y-31578431D01*
X33902000Y-31629440D01*
X34702000Y-31629440D01*
X34937317Y-31585162D01*
X35040646Y-31518671D01*
X35042302Y-31520327D01*
X35275691Y-31617000D01*
X35516250Y-31617000D01*
X35675000Y-31458250D01*
X35675000Y-30734000D01*
X35929000Y-30734000D01*
X35929000Y-31458250D01*
X36087750Y-31617000D01*
X36328309Y-31617000D01*
X36561698Y-31520327D01*
X36740327Y-31341699D01*
X36837000Y-31108310D01*
X36837000Y-30892750D01*
X36678250Y-30734000D01*
X35929000Y-30734000D01*
X35675000Y-30734000D01*
X35655000Y-30734000D01*
X35655000Y-30480000D01*
X35675000Y-30480000D01*
X35675000Y-29755750D01*
X35929000Y-29755750D01*
X35929000Y-30480000D01*
X36678250Y-30480000D01*
X36837000Y-30321250D01*
X36837000Y-30105690D01*
X36740327Y-29872301D01*
X36561698Y-29693673D01*
X36328309Y-29597000D01*
X36087750Y-29597000D01*
X35929000Y-29755750D01*
X35675000Y-29755750D01*
X35516250Y-29597000D01*
X35275691Y-29597000D01*
X35042302Y-29693673D01*
X35040932Y-29695043D01*
X34953890Y-29635569D01*
X34702000Y-29584560D01*
X33902000Y-29584560D01*
X33666683Y-29628838D01*
X33591288Y-29677353D01*
X33545090Y-29605559D01*
X33332890Y-29460569D01*
X33193139Y-29432269D01*
X33193162Y-29405833D01*
X33146198Y-29292172D01*
X33316317Y-29260162D01*
X33532441Y-29121090D01*
X33608395Y-29009928D01*
X33650110Y-29038431D01*
X33902000Y-29089440D01*
X34702000Y-29089440D01*
X34937317Y-29045162D01*
X35040646Y-28978671D01*
X35042302Y-28980327D01*
X35275691Y-29077000D01*
X35516250Y-29077000D01*
X35675000Y-28918250D01*
X35675000Y-28194000D01*
X35929000Y-28194000D01*
X35929000Y-28918250D01*
X36087750Y-29077000D01*
X36328309Y-29077000D01*
X36561698Y-28980327D01*
X36740327Y-28801699D01*
X36837000Y-28568310D01*
X36837000Y-28352750D01*
X36678250Y-28194000D01*
X35929000Y-28194000D01*
X35675000Y-28194000D01*
X35655000Y-28194000D01*
X35655000Y-27940000D01*
X35675000Y-27940000D01*
X35675000Y-27215750D01*
X35929000Y-27215750D01*
X35929000Y-27940000D01*
X36678250Y-27940000D01*
X36837000Y-27781250D01*
X36837000Y-27565690D01*
X36740327Y-27332301D01*
X36561698Y-27153673D01*
X36328309Y-27057000D01*
X36087750Y-27057000D01*
X35929000Y-27215750D01*
X35675000Y-27215750D01*
X35516250Y-27057000D01*
X35275691Y-27057000D01*
X35042302Y-27153673D01*
X35040932Y-27155043D01*
X34953890Y-27095569D01*
X34702000Y-27044560D01*
X33902000Y-27044560D01*
X33666683Y-27088838D01*
X33573086Y-27149066D01*
X33545090Y-27105559D01*
X33332890Y-26960569D01*
X33081000Y-26909560D01*
X31181000Y-26909560D01*
X30945683Y-26953838D01*
X30729559Y-27092910D01*
X30584569Y-27305110D01*
X30533560Y-27557000D01*
X30533560Y-28657000D01*
X30577838Y-28892317D01*
X30600735Y-28927900D01*
X30561162Y-29023201D01*
X30560838Y-29395167D01*
X30675334Y-29672270D01*
X30584569Y-29805110D01*
X30533560Y-30057000D01*
X30533560Y-31109758D01*
X30097000Y-30673198D01*
X30097000Y-23881844D01*
X30163441Y-23839090D01*
X30225554Y-23748185D01*
X30275910Y-23826441D01*
X30488110Y-23971431D01*
X30740000Y-24022440D01*
X31490000Y-24022440D01*
X31725317Y-23978162D01*
X31941441Y-23839090D01*
X31944626Y-23834428D01*
X31959441Y-23844551D01*
X31949559Y-23850910D01*
X31804569Y-24063110D01*
X31753560Y-24315000D01*
X31753560Y-25215000D01*
X31797838Y-25450317D01*
X31936910Y-25666441D01*
X32149110Y-25811431D01*
X32401000Y-25862440D01*
X32901000Y-25862440D01*
X33136317Y-25818162D01*
X33352441Y-25679090D01*
X33400134Y-25609289D01*
X33428456Y-25653303D01*
X33448852Y-25755839D01*
X33481935Y-25805351D01*
X33481838Y-25916167D01*
X33623883Y-26259943D01*
X33886673Y-26523192D01*
X34230201Y-26665838D01*
X34602167Y-26666162D01*
X34945943Y-26524117D01*
X35209192Y-26261327D01*
X35351838Y-25917799D01*
X35352162Y-25545833D01*
X35210117Y-25202057D01*
X35048440Y-25040098D01*
X35048440Y-24315000D01*
X35004162Y-24079683D01*
X34920095Y-23949040D01*
X35037698Y-23900327D01*
X35216327Y-23721699D01*
X35313000Y-23488310D01*
X35313000Y-23272750D01*
X35154250Y-23114000D01*
X34405000Y-23114000D01*
X34405000Y-23134000D01*
X34151000Y-23134000D01*
X34151000Y-23114000D01*
X34131000Y-23114000D01*
X34131000Y-22860000D01*
X34151000Y-22860000D01*
X34151000Y-22135750D01*
X34405000Y-22135750D01*
X34405000Y-22860000D01*
X35154250Y-22860000D01*
X35313000Y-22701250D01*
X35313000Y-22625750D01*
X36074000Y-22625750D01*
X36074000Y-22866309D01*
X36170673Y-23099698D01*
X36349301Y-23278327D01*
X36582690Y-23375000D01*
X36798250Y-23375000D01*
X36957000Y-23216250D01*
X36957000Y-22467000D01*
X36232750Y-22467000D01*
X36074000Y-22625750D01*
X35313000Y-22625750D01*
X35313000Y-22485690D01*
X35216327Y-22252301D01*
X35037698Y-22073673D01*
X34804309Y-21977000D01*
X34563750Y-21977000D01*
X34405000Y-22135750D01*
X34151000Y-22135750D01*
X33992250Y-21977000D01*
X33751691Y-21977000D01*
X33518302Y-22073673D01*
X33516932Y-22075043D01*
X33429890Y-22015569D01*
X33178000Y-21964560D01*
X32378000Y-21964560D01*
X32142683Y-22008838D01*
X32114322Y-22027088D01*
X32125000Y-22001309D01*
X32125000Y-21760750D01*
X31966250Y-21602000D01*
X31242000Y-21602000D01*
X31242000Y-21622000D01*
X30988000Y-21622000D01*
X30988000Y-21602000D01*
X30263750Y-21602000D01*
X30226000Y-21639750D01*
X30188250Y-21602000D01*
X29464000Y-21602000D01*
X29464000Y-21622000D01*
X29210000Y-21622000D01*
X29210000Y-21602000D01*
X28485750Y-21602000D01*
X28389814Y-21697936D01*
X28244415Y-21480330D01*
X28222220Y-21465500D01*
X28375698Y-21401927D01*
X28457688Y-21319938D01*
X28485750Y-21348000D01*
X29210000Y-21348000D01*
X29210000Y-20598750D01*
X29464000Y-20598750D01*
X29464000Y-21348000D01*
X30188250Y-21348000D01*
X30226000Y-21310250D01*
X30263750Y-21348000D01*
X30988000Y-21348000D01*
X30988000Y-20598750D01*
X31242000Y-20598750D01*
X31242000Y-21348000D01*
X31966250Y-21348000D01*
X32125000Y-21189250D01*
X32125000Y-20948691D01*
X32028327Y-20715302D01*
X31849699Y-20536673D01*
X31616310Y-20440000D01*
X31400750Y-20440000D01*
X31242000Y-20598750D01*
X30988000Y-20598750D01*
X30829250Y-20440000D01*
X30613690Y-20440000D01*
X30380301Y-20536673D01*
X30226000Y-20690975D01*
X30071699Y-20536673D01*
X29838310Y-20440000D01*
X29622750Y-20440000D01*
X29464000Y-20598750D01*
X29210000Y-20598750D01*
X29051250Y-20440000D01*
X28835690Y-20440000D01*
X28651000Y-20516501D01*
X28651000Y-20285750D01*
X28492250Y-20127000D01*
X27127000Y-20127000D01*
X27127000Y-20147000D01*
X26873000Y-20147000D01*
X26873000Y-20127000D01*
X26853000Y-20127000D01*
X26853000Y-19873000D01*
X26873000Y-19873000D01*
X26873000Y-19853000D01*
X27127000Y-19853000D01*
X27127000Y-19873000D01*
X28492250Y-19873000D01*
X28651000Y-19714250D01*
X28651000Y-19010090D01*
X28554327Y-18776701D01*
X28375698Y-18598073D01*
X28240326Y-18542000D01*
X41059674Y-18542000D01*
X40924302Y-18598073D01*
X40924302Y-18598073D01*
G37*
X40924302Y-18598073D02*
X40745673Y-18776701D01*
X40649000Y-19010090D01*
X40649000Y-19714250D01*
X40807750Y-19873000D01*
X42173000Y-19873000D01*
X42173000Y-19853000D01*
X42427000Y-19853000D01*
X42427000Y-19873000D01*
X42447000Y-19873000D01*
X42447000Y-20127000D01*
X42427000Y-20127000D01*
X42427000Y-20147000D01*
X42173000Y-20147000D01*
X42173000Y-20127000D01*
X40807750Y-20127000D01*
X40649000Y-20285750D01*
X40649000Y-20989910D01*
X40745673Y-21223299D01*
X40924302Y-21401927D01*
X41077780Y-21465500D01*
X41055585Y-21480330D01*
X40946398Y-21643739D01*
X40822090Y-21450559D01*
X40609890Y-21305569D01*
X40358000Y-21254560D01*
X39858000Y-21254560D01*
X39622683Y-21298838D01*
X39406559Y-21437910D01*
X39360031Y-21506006D01*
X39217698Y-21363673D01*
X38984309Y-21267000D01*
X38891750Y-21267000D01*
X38735002Y-21423748D01*
X38735002Y-21388243D01*
X38892192Y-21231327D01*
X39034838Y-20887799D01*
X39035162Y-20515833D01*
X38893117Y-20172057D01*
X38630327Y-19908808D01*
X38286799Y-19766162D01*
X37914833Y-19765838D01*
X37716851Y-19847642D01*
X37710890Y-19843569D01*
X37459000Y-19792560D01*
X36709000Y-19792560D01*
X36473683Y-19836838D01*
X36257559Y-19975910D01*
X36112569Y-20188110D01*
X36061560Y-20440000D01*
X36061560Y-21240000D01*
X36105838Y-21475317D01*
X36172329Y-21578646D01*
X36170673Y-21580302D01*
X36074000Y-21813691D01*
X36074000Y-22054250D01*
X36232750Y-22213000D01*
X36957000Y-22213000D01*
X36957000Y-22193000D01*
X37211000Y-22193000D01*
X37211000Y-22213000D01*
X37869750Y-22213000D01*
X37881750Y-22225000D01*
X38483000Y-22225000D01*
X38483000Y-22205000D01*
X38733000Y-22205000D01*
X38733000Y-22225000D01*
X38755000Y-22225000D01*
X38755000Y-22479000D01*
X38733000Y-22479000D01*
X38733000Y-23278250D01*
X38891750Y-23437000D01*
X38984309Y-23437000D01*
X39217698Y-23340327D01*
X39358936Y-23199090D01*
X39393910Y-23253441D01*
X39606110Y-23398431D01*
X39858000Y-23449440D01*
X40358000Y-23449440D01*
X40593317Y-23405162D01*
X40756743Y-23300000D01*
X40855352Y-23300000D01*
X41055585Y-23599670D01*
X41370366Y-23810000D01*
X41055585Y-24020330D01*
X40730729Y-24506511D01*
X40616655Y-25080000D01*
X40730729Y-25653489D01*
X41055585Y-26139670D01*
X41370366Y-26350000D01*
X41055585Y-26560330D01*
X40730729Y-27046511D01*
X40616655Y-27620000D01*
X40730729Y-28193489D01*
X41055585Y-28679670D01*
X41370366Y-28890000D01*
X41055585Y-29100330D01*
X40730729Y-29586511D01*
X40616655Y-30160000D01*
X40730729Y-30733489D01*
X41055585Y-31219670D01*
X41370366Y-31430000D01*
X41055585Y-31640330D01*
X40730729Y-32126511D01*
X40616655Y-32700000D01*
X40730729Y-33273489D01*
X41055585Y-33759670D01*
X41370366Y-33970000D01*
X41055585Y-34180330D01*
X40730729Y-34666511D01*
X40616655Y-35240000D01*
X40730729Y-35813489D01*
X41055585Y-36299670D01*
X41370366Y-36510000D01*
X41055585Y-36720330D01*
X40730729Y-37206511D01*
X40616655Y-37780000D01*
X40730729Y-38353489D01*
X41055585Y-38839670D01*
X41370366Y-39050000D01*
X41055585Y-39260330D01*
X40730729Y-39746511D01*
X40616655Y-40320000D01*
X40730729Y-40893489D01*
X41055585Y-41379670D01*
X41370366Y-41590000D01*
X41055585Y-41800330D01*
X40730729Y-42286511D01*
X40616655Y-42860000D01*
X40730729Y-43433489D01*
X41055585Y-43919670D01*
X41370366Y-44130000D01*
X41055585Y-44340330D01*
X40730729Y-44826511D01*
X40621537Y-45375458D01*
X40484439Y-45283852D01*
X40193600Y-45226000D01*
X38616931Y-45226000D01*
X38558090Y-45134559D01*
X38345890Y-44989569D01*
X38094000Y-44938560D01*
X37344000Y-44938560D01*
X37108683Y-44982838D01*
X36892559Y-45121910D01*
X36821437Y-45226000D01*
X36679481Y-45226000D01*
X36770431Y-45092890D01*
X36821440Y-44841000D01*
X36821440Y-44191000D01*
X36777162Y-43955683D01*
X36638090Y-43739559D01*
X36425890Y-43594569D01*
X36174000Y-43543560D01*
X35114000Y-43543560D01*
X34878683Y-43587838D01*
X34662559Y-43726910D01*
X34542767Y-43902232D01*
X34438090Y-43739559D01*
X34225890Y-43594569D01*
X33974000Y-43543560D01*
X32914000Y-43543560D01*
X32678683Y-43587838D01*
X32464206Y-43725850D01*
X32254026Y-43767658D01*
X32122635Y-43855451D01*
X31991243Y-43943244D01*
X31001244Y-44933244D01*
X30825658Y-45196026D01*
X30764000Y-45506000D01*
X30764000Y-45719941D01*
X30631683Y-45744838D01*
X30415559Y-45883910D01*
X30378601Y-45938000D01*
X30087000Y-45938000D01*
X29777027Y-45999657D01*
X29514244Y-46175243D01*
X28559488Y-47130000D01*
X28411239Y-47130000D01*
X28244415Y-46880330D01*
X27929634Y-46670000D01*
X28244415Y-46459670D01*
X28569271Y-45973489D01*
X28683345Y-45400000D01*
X28569271Y-44826511D01*
X28244415Y-44340330D01*
X27929634Y-44130000D01*
X28244415Y-43919670D01*
X28569271Y-43433489D01*
X28683345Y-42860000D01*
X28569271Y-42286511D01*
X28244415Y-41800330D01*
X27929634Y-41590000D01*
X28122326Y-41461247D01*
X31322838Y-41461247D01*
X31464883Y-41805023D01*
X31727673Y-42068272D01*
X32071201Y-42210918D01*
X32443167Y-42211242D01*
X32786943Y-42069197D01*
X33050192Y-41806407D01*
X33192838Y-41462879D01*
X33193162Y-41090913D01*
X33051117Y-40747137D01*
X32788327Y-40483888D01*
X32444799Y-40341242D01*
X32072833Y-40340918D01*
X31729057Y-40482963D01*
X31465808Y-40745753D01*
X31323162Y-41089281D01*
X31322838Y-41461247D01*
X28122326Y-41461247D01*
X28244415Y-41379670D01*
X28569271Y-40893489D01*
X28683345Y-40320000D01*
X28569271Y-39746511D01*
X28244415Y-39260330D01*
X27929634Y-39050000D01*
X28244415Y-38839670D01*
X28569271Y-38353489D01*
X28683345Y-37780000D01*
X28632258Y-37523167D01*
X34116838Y-37523167D01*
X34258883Y-37866943D01*
X34521673Y-38130192D01*
X34865201Y-38272838D01*
X35237167Y-38273162D01*
X35580943Y-38131117D01*
X35844192Y-37868327D01*
X35873394Y-37798001D01*
X37637999Y-37798001D01*
X37928838Y-37740149D01*
X38175400Y-37575402D01*
X39720402Y-36030400D01*
X39885149Y-35783838D01*
X39943001Y-35492999D01*
X39943001Y-25340001D01*
X39885149Y-25049162D01*
X39720402Y-24802600D01*
X38781122Y-23863320D01*
X38781162Y-23817833D01*
X38639117Y-23474057D01*
X38463309Y-23297941D01*
X38483000Y-23278250D01*
X38483000Y-22479000D01*
X37947250Y-22479000D01*
X37935250Y-22467000D01*
X37211000Y-22467000D01*
X37211000Y-23216250D01*
X37260796Y-23266046D01*
X37053808Y-23472673D01*
X36911162Y-23816201D01*
X36910838Y-24188167D01*
X37052883Y-24531943D01*
X37315673Y-24795192D01*
X37659201Y-24937838D01*
X37706077Y-24937879D01*
X38423001Y-25654803D01*
X38423001Y-35178197D01*
X37323197Y-36278001D01*
X35351999Y-36278001D01*
X35061160Y-36335853D01*
X34960787Y-36402920D01*
X34866833Y-36402838D01*
X34523057Y-36544883D01*
X34259808Y-36807673D01*
X34117162Y-37151201D01*
X34116838Y-37523167D01*
X28632258Y-37523167D01*
X28569271Y-37206511D01*
X28244415Y-36720330D01*
X27929634Y-36510000D01*
X28244415Y-36299670D01*
X28346992Y-36146152D01*
X28552673Y-36352192D01*
X28896201Y-36494838D01*
X29189656Y-36495094D01*
X29089000Y-36595750D01*
X29089000Y-36836309D01*
X29185673Y-37069698D01*
X29364301Y-37248327D01*
X29597690Y-37345000D01*
X29813250Y-37345000D01*
X29972000Y-37186250D01*
X29972000Y-36437000D01*
X29952000Y-36437000D01*
X29952000Y-36183000D01*
X29972000Y-36183000D01*
X29972000Y-36163000D01*
X30226000Y-36163000D01*
X30226000Y-36183000D01*
X30246000Y-36183000D01*
X30246000Y-36437000D01*
X30226000Y-36437000D01*
X30226000Y-37186250D01*
X30384750Y-37345000D01*
X30600310Y-37345000D01*
X30833699Y-37248327D01*
X30991973Y-37090052D01*
X31037910Y-37161441D01*
X31250110Y-37306431D01*
X31502000Y-37357440D01*
X32252000Y-37357440D01*
X32487317Y-37313162D01*
X32703441Y-37174090D01*
X32848431Y-36961890D01*
X32899440Y-36710000D01*
X32899440Y-35910000D01*
X32855162Y-35674683D01*
X32781380Y-35560022D01*
X32782762Y-35558000D01*
X32887156Y-35558000D01*
X32929910Y-35624441D01*
X33142110Y-35769431D01*
X33394000Y-35820440D01*
X34194000Y-35820440D01*
X34429317Y-35776162D01*
X34543978Y-35702380D01*
X34642110Y-35769431D01*
X34894000Y-35820440D01*
X35694000Y-35820440D01*
X35929317Y-35776162D01*
X36145441Y-35637090D01*
X36290431Y-35424890D01*
X36341440Y-35173000D01*
X36341440Y-34423000D01*
X36297162Y-34187683D01*
X36158090Y-33971559D01*
X35970018Y-33843055D01*
X35831401Y-33635599D01*
X34805401Y-32609599D01*
X34558839Y-32444852D01*
X34268000Y-32387000D01*
X31810802Y-32387000D01*
X31228242Y-31804440D01*
X33081000Y-31804440D01*
X33316317Y-31760162D01*
X33532441Y-31621090D01*
X33589762Y-31537197D01*
X33650110Y-31578431D01*
X33902000Y-31629440D01*
X34702000Y-31629440D01*
X34937317Y-31585162D01*
X35040646Y-31518671D01*
X35042302Y-31520327D01*
X35275691Y-31617000D01*
X35516250Y-31617000D01*
X35675000Y-31458250D01*
X35675000Y-30734000D01*
X35929000Y-30734000D01*
X35929000Y-31458250D01*
X36087750Y-31617000D01*
X36328309Y-31617000D01*
X36561698Y-31520327D01*
X36740327Y-31341699D01*
X36837000Y-31108310D01*
X36837000Y-30892750D01*
X36678250Y-30734000D01*
X35929000Y-30734000D01*
X35675000Y-30734000D01*
X35655000Y-30734000D01*
X35655000Y-30480000D01*
X35675000Y-30480000D01*
X35675000Y-29755750D01*
X35929000Y-29755750D01*
X35929000Y-30480000D01*
X36678250Y-30480000D01*
X36837000Y-30321250D01*
X36837000Y-30105690D01*
X36740327Y-29872301D01*
X36561698Y-29693673D01*
X36328309Y-29597000D01*
X36087750Y-29597000D01*
X35929000Y-29755750D01*
X35675000Y-29755750D01*
X35516250Y-29597000D01*
X35275691Y-29597000D01*
X35042302Y-29693673D01*
X35040932Y-29695043D01*
X34953890Y-29635569D01*
X34702000Y-29584560D01*
X33902000Y-29584560D01*
X33666683Y-29628838D01*
X33591288Y-29677353D01*
X33545090Y-29605559D01*
X33332890Y-29460569D01*
X33193139Y-29432269D01*
X33193162Y-29405833D01*
X33146198Y-29292172D01*
X33316317Y-29260162D01*
X33532441Y-29121090D01*
X33608395Y-29009928D01*
X33650110Y-29038431D01*
X33902000Y-29089440D01*
X34702000Y-29089440D01*
X34937317Y-29045162D01*
X35040646Y-28978671D01*
X35042302Y-28980327D01*
X35275691Y-29077000D01*
X35516250Y-29077000D01*
X35675000Y-28918250D01*
X35675000Y-28194000D01*
X35929000Y-28194000D01*
X35929000Y-28918250D01*
X36087750Y-29077000D01*
X36328309Y-29077000D01*
X36561698Y-28980327D01*
X36740327Y-28801699D01*
X36837000Y-28568310D01*
X36837000Y-28352750D01*
X36678250Y-28194000D01*
X35929000Y-28194000D01*
X35675000Y-28194000D01*
X35655000Y-28194000D01*
X35655000Y-27940000D01*
X35675000Y-27940000D01*
X35675000Y-27215750D01*
X35929000Y-27215750D01*
X35929000Y-27940000D01*
X36678250Y-27940000D01*
X36837000Y-27781250D01*
X36837000Y-27565690D01*
X36740327Y-27332301D01*
X36561698Y-27153673D01*
X36328309Y-27057000D01*
X36087750Y-27057000D01*
X35929000Y-27215750D01*
X35675000Y-27215750D01*
X35516250Y-27057000D01*
X35275691Y-27057000D01*
X35042302Y-27153673D01*
X35040932Y-27155043D01*
X34953890Y-27095569D01*
X34702000Y-27044560D01*
X33902000Y-27044560D01*
X33666683Y-27088838D01*
X33573086Y-27149066D01*
X33545090Y-27105559D01*
X33332890Y-26960569D01*
X33081000Y-26909560D01*
X31181000Y-26909560D01*
X30945683Y-26953838D01*
X30729559Y-27092910D01*
X30584569Y-27305110D01*
X30533560Y-27557000D01*
X30533560Y-28657000D01*
X30577838Y-28892317D01*
X30600735Y-28927900D01*
X30561162Y-29023201D01*
X30560838Y-29395167D01*
X30675334Y-29672270D01*
X30584569Y-29805110D01*
X30533560Y-30057000D01*
X30533560Y-31109758D01*
X30097000Y-30673198D01*
X30097000Y-23881844D01*
X30163441Y-23839090D01*
X30225554Y-23748185D01*
X30275910Y-23826441D01*
X30488110Y-23971431D01*
X30740000Y-24022440D01*
X31490000Y-24022440D01*
X31725317Y-23978162D01*
X31941441Y-23839090D01*
X31944626Y-23834428D01*
X31959441Y-23844551D01*
X31949559Y-23850910D01*
X31804569Y-24063110D01*
X31753560Y-24315000D01*
X31753560Y-25215000D01*
X31797838Y-25450317D01*
X31936910Y-25666441D01*
X32149110Y-25811431D01*
X32401000Y-25862440D01*
X32901000Y-25862440D01*
X33136317Y-25818162D01*
X33352441Y-25679090D01*
X33400134Y-25609289D01*
X33428456Y-25653303D01*
X33448852Y-25755839D01*
X33481935Y-25805351D01*
X33481838Y-25916167D01*
X33623883Y-26259943D01*
X33886673Y-26523192D01*
X34230201Y-26665838D01*
X34602167Y-26666162D01*
X34945943Y-26524117D01*
X35209192Y-26261327D01*
X35351838Y-25917799D01*
X35352162Y-25545833D01*
X35210117Y-25202057D01*
X35048440Y-25040098D01*
X35048440Y-24315000D01*
X35004162Y-24079683D01*
X34920095Y-23949040D01*
X35037698Y-23900327D01*
X35216327Y-23721699D01*
X35313000Y-23488310D01*
X35313000Y-23272750D01*
X35154250Y-23114000D01*
X34405000Y-23114000D01*
X34405000Y-23134000D01*
X34151000Y-23134000D01*
X34151000Y-23114000D01*
X34131000Y-23114000D01*
X34131000Y-22860000D01*
X34151000Y-22860000D01*
X34151000Y-22135750D01*
X34405000Y-22135750D01*
X34405000Y-22860000D01*
X35154250Y-22860000D01*
X35313000Y-22701250D01*
X35313000Y-22625750D01*
X36074000Y-22625750D01*
X36074000Y-22866309D01*
X36170673Y-23099698D01*
X36349301Y-23278327D01*
X36582690Y-23375000D01*
X36798250Y-23375000D01*
X36957000Y-23216250D01*
X36957000Y-22467000D01*
X36232750Y-22467000D01*
X36074000Y-22625750D01*
X35313000Y-22625750D01*
X35313000Y-22485690D01*
X35216327Y-22252301D01*
X35037698Y-22073673D01*
X34804309Y-21977000D01*
X34563750Y-21977000D01*
X34405000Y-22135750D01*
X34151000Y-22135750D01*
X33992250Y-21977000D01*
X33751691Y-21977000D01*
X33518302Y-22073673D01*
X33516932Y-22075043D01*
X33429890Y-22015569D01*
X33178000Y-21964560D01*
X32378000Y-21964560D01*
X32142683Y-22008838D01*
X32114322Y-22027088D01*
X32125000Y-22001309D01*
X32125000Y-21760750D01*
X31966250Y-21602000D01*
X31242000Y-21602000D01*
X31242000Y-21622000D01*
X30988000Y-21622000D01*
X30988000Y-21602000D01*
X30263750Y-21602000D01*
X30226000Y-21639750D01*
X30188250Y-21602000D01*
X29464000Y-21602000D01*
X29464000Y-21622000D01*
X29210000Y-21622000D01*
X29210000Y-21602000D01*
X28485750Y-21602000D01*
X28389814Y-21697936D01*
X28244415Y-21480330D01*
X28222220Y-21465500D01*
X28375698Y-21401927D01*
X28457688Y-21319938D01*
X28485750Y-21348000D01*
X29210000Y-21348000D01*
X29210000Y-20598750D01*
X29464000Y-20598750D01*
X29464000Y-21348000D01*
X30188250Y-21348000D01*
X30226000Y-21310250D01*
X30263750Y-21348000D01*
X30988000Y-21348000D01*
X30988000Y-20598750D01*
X31242000Y-20598750D01*
X31242000Y-21348000D01*
X31966250Y-21348000D01*
X32125000Y-21189250D01*
X32125000Y-20948691D01*
X32028327Y-20715302D01*
X31849699Y-20536673D01*
X31616310Y-20440000D01*
X31400750Y-20440000D01*
X31242000Y-20598750D01*
X30988000Y-20598750D01*
X30829250Y-20440000D01*
X30613690Y-20440000D01*
X30380301Y-20536673D01*
X30226000Y-20690975D01*
X30071699Y-20536673D01*
X29838310Y-20440000D01*
X29622750Y-20440000D01*
X29464000Y-20598750D01*
X29210000Y-20598750D01*
X29051250Y-20440000D01*
X28835690Y-20440000D01*
X28651000Y-20516501D01*
X28651000Y-20285750D01*
X28492250Y-20127000D01*
X27127000Y-20127000D01*
X27127000Y-20147000D01*
X26873000Y-20147000D01*
X26873000Y-20127000D01*
X26853000Y-20127000D01*
X26853000Y-19873000D01*
X26873000Y-19873000D01*
X26873000Y-19853000D01*
X27127000Y-19853000D01*
X27127000Y-19873000D01*
X28492250Y-19873000D01*
X28651000Y-19714250D01*
X28651000Y-19010090D01*
X28554327Y-18776701D01*
X28375698Y-18598073D01*
X28240326Y-18542000D01*
X41059674Y-18542000D01*
X40924302Y-18598073D01*
G36*
X34649910Y-45292441D02*
X34862110Y-45437431D01*
X34999120Y-45465176D01*
X34878683Y-45487838D01*
X34662559Y-45626910D01*
X34590144Y-45732894D01*
X34450250Y-45593000D01*
X34369949Y-45593000D01*
X34225890Y-45494569D01*
X34088880Y-45466824D01*
X34209317Y-45444162D01*
X34372743Y-45339000D01*
X34450250Y-45339000D01*
X34589965Y-45199285D01*
X34649910Y-45292441D01*
X34649910Y-45292441D01*
G37*
X34649910Y-45292441D02*
X34862110Y-45437431D01*
X34999120Y-45465176D01*
X34878683Y-45487838D01*
X34662559Y-45626910D01*
X34590144Y-45732894D01*
X34450250Y-45593000D01*
X34369949Y-45593000D01*
X34225890Y-45494569D01*
X34088880Y-45466824D01*
X34209317Y-45444162D01*
X34372743Y-45339000D01*
X34450250Y-45339000D01*
X34589965Y-45199285D01*
X34649910Y-45292441D01*
G36*
X28577000Y-30988000D02*
X28634852Y-31278839D01*
X28799599Y-31525401D01*
X30958599Y-33684401D01*
X31203086Y-33847762D01*
X31050559Y-33945910D01*
X30988446Y-34036815D01*
X30938090Y-33958559D01*
X30725890Y-33813569D01*
X30474000Y-33762560D01*
X29724000Y-33762560D01*
X29488683Y-33806838D01*
X29272559Y-33945910D01*
X29144055Y-34133981D01*
X28936599Y-34272598D01*
X28558623Y-34650575D01*
X28244415Y-34180330D01*
X27929634Y-33970000D01*
X28244415Y-33759670D01*
X28569271Y-33273489D01*
X28683345Y-32700000D01*
X28569271Y-32126511D01*
X28244415Y-31640330D01*
X27929634Y-31430000D01*
X28244415Y-31219670D01*
X28569271Y-30733489D01*
X28577000Y-30694633D01*
X28577000Y-30988000D01*
X28577000Y-30988000D01*
G37*
X28577000Y-30988000D02*
X28634852Y-31278839D01*
X28799599Y-31525401D01*
X30958599Y-33684401D01*
X31203086Y-33847762D01*
X31050559Y-33945910D01*
X30988446Y-34036815D01*
X30938090Y-33958559D01*
X30725890Y-33813569D01*
X30474000Y-33762560D01*
X29724000Y-33762560D01*
X29488683Y-33806838D01*
X29272559Y-33945910D01*
X29144055Y-34133981D01*
X28936599Y-34272598D01*
X28558623Y-34650575D01*
X28244415Y-34180330D01*
X27929634Y-33970000D01*
X28244415Y-33759670D01*
X28569271Y-33273489D01*
X28683345Y-32700000D01*
X28569271Y-32126511D01*
X28244415Y-31640330D01*
X27929634Y-31430000D01*
X28244415Y-31219670D01*
X28569271Y-30733489D01*
X28577000Y-30694633D01*
X28577000Y-30988000D01*
M02*
