G04 #@! TF.FileFunction,Soldermask,Bot*
%FSLAX46Y46*%
G04 Gerber Fmt 4.6, Leading zero omitted, Abs format (unit mm)*
G04 Created by KiCad (PCBNEW 4.0.2-stable) date 8/15/2016 9:27:46 PM*
%MOMM*%
G01*
G04 APERTURE LIST*
%ADD10C,0.100000*%
%ADD11R,1.150000X1.200000*%
%ADD12R,1.200000X1.150000*%
%ADD13R,2.432000X2.127200*%
%ADD14O,2.432000X2.127200*%
%ADD15R,0.900000X1.300000*%
%ADD16R,1.460000X1.050000*%
%ADD17R,2.300000X1.500000*%
G04 APERTURE END LIST*
D10*
D11*
X31242000Y-46748000D03*
X31242000Y-48248000D03*
X37719000Y-45986000D03*
X37719000Y-47486000D03*
D12*
X32778000Y-22987000D03*
X34278000Y-22987000D03*
D11*
X30099000Y-34810000D03*
X30099000Y-36310000D03*
X37084000Y-22340000D03*
X37084000Y-20840000D03*
X29337000Y-22975000D03*
X29337000Y-21475000D03*
X31115000Y-22975000D03*
X31115000Y-21475000D03*
D12*
X35802000Y-30607000D03*
X34302000Y-30607000D03*
X35802000Y-28067000D03*
X34302000Y-28067000D03*
D11*
X31877000Y-36310000D03*
X31877000Y-34810000D03*
D12*
X35294000Y-34798000D03*
X33794000Y-34798000D03*
D13*
X27000000Y-20000000D03*
D14*
X27000000Y-22540000D03*
X27000000Y-25080000D03*
X27000000Y-27620000D03*
X27000000Y-30160000D03*
X27000000Y-32700000D03*
X27000000Y-35240000D03*
X27000000Y-37780000D03*
X27000000Y-40320000D03*
X27000000Y-42860000D03*
X27000000Y-45400000D03*
X27000000Y-47940000D03*
D13*
X42300000Y-20000000D03*
D14*
X42300000Y-22540000D03*
X42300000Y-25080000D03*
X42300000Y-27620000D03*
X42300000Y-30160000D03*
X42300000Y-32700000D03*
X42300000Y-35240000D03*
X42300000Y-37780000D03*
X42300000Y-40320000D03*
X42300000Y-42860000D03*
X42300000Y-45400000D03*
X42300000Y-47940000D03*
D15*
X34151000Y-24765000D03*
X32651000Y-24765000D03*
X38608000Y-22352000D03*
X40108000Y-22352000D03*
D16*
X33444000Y-46416000D03*
X33444000Y-45466000D03*
X33444000Y-44516000D03*
X35644000Y-44516000D03*
X35644000Y-46416000D03*
D17*
X32131000Y-28107000D03*
X32131000Y-30607000D03*
M02*
